<?xml version="1.0" standalone="no"?>
<!DOCTYPE svg PUBLIC "-//W3C//DTD SVG 20010904//EN"
 "http://www.w3.org/TR/2001/REC-SVG-20010904/DTD/svg10.dtd">
<svg version="1.0" xmlns="http://www.w3.org/2000/svg"
 width="898.000000pt" height="1280.000000pt" viewBox="0 0 898.000000 1280.000000"
 preserveAspectRatio="xMidYMid meet">
<metadata>
Created by potrace 1.15, written by Peter Selinger 2001-2017
</metadata>
<g transform="translate(0.000000,1280.000000) scale(0.100000,-0.100000)"
fill="#000970" stroke="none">
<path d="M3921 12787 c-6 -8 -15 -45 -20 -83 -10 -65 -56 -196 -100 -282 l-19
-37 1 90 c2 109 -20 187 -69 242 -46 52 -57 35 -49 -77 4 -64 -1 -128 -20
-258 -15 -101 -23 -189 -19 -210 3 -21 23 -91 44 -157 48 -152 64 -226 56
-258 -5 -20 -24 -34 -83 -62 -93 -44 -330 -181 -603 -347 -196 -119 -337 -223
-469 -344 l-64 -59 79 -76 c44 -41 112 -106 153 -144 40 -39 100 -100 132
-138 68 -78 71 -94 34 -193 -44 -117 -58 -211 -45 -301 31 -208 125 -540 310
-1093 183 -548 174 -513 175 -705 0 -131 -5 -189 -29 -325 -30 -179 -37 -340
-23 -531 l8 -105 -178 18 c-200 21 -285 20 -310 -5 -37 -37 20 -60 244 -98
134 -22 193 -45 193 -75 0 -11 -5 -14 -17 -9 -65 27 -228 22 -340 -10 -72 -21
-87 -46 -86 -144 0 -85 19 -143 52 -161 24 -12 38 -7 64 27 21 26 37 30 37 8
0 -24 67 -35 212 -35 158 0 142 13 153 -121 l6 -76 177 -6 c183 -5 270 -20
300 -51 33 -32 -2 -38 -202 -32 -103 3 -187 4 -185 2 2 -2 68 -14 147 -26 78
-13 141 -25 138 -27 -2 -3 -39 -9 -82 -14 -42 -6 -85 -14 -96 -20 -32 -17 -21
-52 38 -120 59 -67 82 -105 71 -116 -4 -3 -15 1 -25 10 -20 18 -62 23 -62 8 0
-5 18 -31 40 -58 22 -26 58 -70 80 -96 37 -46 50 -77 32 -77 -4 0 -36 18 -71
41 -63 41 -168 89 -226 103 -61 15 -125 48 -125 65 0 9 29 52 65 95 36 43 65
86 65 97 0 42 -91 87 -153 75 -37 -8 -73 -33 -176 -126 -138 -124 -308 -315
-341 -384 -42 -88 -63 -200 -63 -341 1 -204 50 -340 203 -555 84 -118 102
-148 114 -187 6 -19 4 -23 -16 -23 -13 0 -36 9 -53 20 -38 26 -147 60 -190 60
-18 0 -43 -8 -56 -19 -21 -16 -25 -17 -34 -4 -8 11 -34 16 -96 17 -68 1 -97 6
-154 30 -61 26 -82 30 -165 30 -59 0 -121 -7 -165 -19 -166 -43 -497 -197
-635 -295 -47 -34 -127 -81 -178 -106 -99 -50 -134 -81 -106 -97 13 -7 7 -15
-33 -44 -129 -92 -585 -338 -683 -369 -54 -16 -253 -99 -319 -132 -45 -22 -99
-88 -107 -130 -9 -45 14 -92 63 -128 79 -59 194 -168 238 -226 44 -59 45 -62
45 -134 0 -84 11 -113 62 -160 109 -103 363 -194 540 -194 l88 0 0 -27 c-1
-89 -21 -376 -30 -423 -8 -43 -7 -60 4 -85 9 -19 14 -58 13 -110 -1 -63 3 -86
17 -108 13 -19 22 -58 27 -120 8 -97 15 -127 30 -127 5 0 26 18 46 41 21 23
100 93 178 157 77 64 181 153 232 198 81 73 98 84 149 94 75 16 152 6 215 -26
71 -36 620 -452 723 -548 47 -43 53 -59 36 -86 -16 -25 -79 15 -365 235 -315
241 -335 259 -335 296 0 71 -166 126 -254 84 -18 -9 -151 -115 -296 -236 -146
-122 -282 -231 -302 -243 -29 -16 -41 -31 -49 -61 -11 -39 -8 -120 5 -132 4
-4 26 -1 49 5 23 7 66 18 95 24 50 12 55 11 68 -7 9 -12 14 -45 14 -90 0 -93
9 -145 75 -415 30 -124 57 -237 60 -252 4 -18 13 -30 29 -34 24 -6 39 -30 73
-119 11 -29 25 -50 33 -50 33 0 54 143 27 180 -9 11 -27 18 -48 19 l-34 1 3
97 3 97 -28 3 c-26 3 -28 6 -27 43 0 22 8 56 16 76 24 52 10 70 -37 45 -19
-11 -37 -17 -39 -15 -3 3 6 40 40 167 6 20 3 22 -27 20 -46 -4 -48 16 -13 127
l27 86 -22 29 c-11 16 -21 36 -21 45 0 46 107 210 125 193 5 -4 25 -94 46
-200 45 -226 77 -352 126 -492 60 -174 106 -256 130 -232 3 3 -5 27 -19 53
-54 100 -82 202 -82 293 0 87 27 203 58 245 26 36 28 7 7 -92 -12 -54 -21
-121 -20 -148 1 -52 26 -166 28 -130 7 100 24 211 36 237 14 31 15 27 10 -72
-5 -101 7 -287 21 -324 16 -41 24 15 24 163 0 85 4 151 8 145 4 -5 20 -48 36
-96 15 -49 31 -88 36 -88 4 0 11 12 15 28 7 29 32 62 48 62 40 0 -68 -228
-150 -321 -61 -66 -57 -83 11 -55 63 26 123 136 191 346 33 104 104 374 136
524 l13 59 59 -64 c80 -86 91 -114 82 -209 -17 -186 -67 -412 -105 -475 -10
-16 -37 -78 -60 -136 -45 -119 -106 -213 -207 -320 -81 -85 -130 -125 -166
-134 -39 -10 -75 33 -116 141 -18 49 -37 93 -42 98 -13 14 -38 -12 -49 -52
-12 -47 11 -101 82 -188 64 -79 125 -128 193 -153 215 -80 594 -32 718 92 77
77 153 212 222 389 51 135 63 148 130 148 48 0 56 3 82 34 17 18 45 60 63 92
18 32 34 61 36 63 1 1 31 -6 66 -17 104 -34 323 -55 765 -73 318 -13 283 -18
496 72 390 165 706 197 765 77 13 -29 26 -118 42 -304 14 -165 66 -437 95
-499 13 -27 45 -70 70 -95 l47 -45 -4 166 c-2 124 -7 170 -17 183 -18 22 -31
5 -31 -42 0 -18 -5 -43 -11 -54 -24 -44 -29 9 -23 222 6 223 1 257 -30 231 -9
-8 -16 -20 -16 -27 0 -12 -16 -20 -22 -11 -1 1 -4 85 -7 187 -6 175 -7 185
-26 188 -11 2 -23 7 -27 10 -3 4 0 57 7 117 17 132 19 217 5 231 -18 18 -33
250 -26 399 6 155 11 181 34 190 35 13 34 20 77 -575 24 -331 53 -530 116
-788 50 -206 82 -256 138 -215 50 38 89 172 132 453 20 135 22 189 26 775 3
414 1 711 -7 865 -7 129 -13 253 -14 275 l-1 40 39 -3 c45 -4 56 7 56 56 0 39
17 75 31 67 13 -9 11 -59 -6 -126 -16 -60 -14 -79 8 -79 31 -1 36 -15 21 -60
-21 -60 -24 -211 -5 -234 24 -29 71 -48 99 -41 37 9 213 193 247 257 23 44 27
61 21 91 -4 21 -14 41 -22 44 -18 7 -81 -33 -174 -111 -39 -32 -73 -56 -76
-53 -10 10 -17 124 -10 172 9 57 53 109 167 195 91 68 154 87 253 75 80 -9
110 -29 202 -133 106 -120 123 -160 132 -314 4 -68 6 -136 4 -151 l-4 -28 -25
23 c-13 12 -34 38 -45 58 -65 109 -118 104 -134 -12 -6 -45 -5 -48 34 -85 48
-45 141 -231 166 -329 19 -74 21 -174 4 -174 -6 0 -44 32 -84 70 -39 39 -79
70 -88 70 -24 0 -39 -37 -31 -78 9 -46 26 -79 87 -171 28 -41 61 -97 74 -126
23 -51 43 -159 44 -240 l0 -39 -30 34 c-17 19 -51 63 -76 98 -45 60 -47 62
-65 46 -55 -50 -46 -140 26 -264 61 -104 73 -145 86 -279 10 -113 4 -190 -16
-194 -15 -3 -54 61 -70 117 -9 28 -20 87 -26 130 -13 101 -30 135 -68 136 -9
0 -11 -8 -7 -26 13 -52 -14 -12 -30 44 -18 65 -57 112 -91 112 -36 0 -28 -34
17 -73 46 -39 49 -60 17 -108 -17 -25 -31 -35 -55 -37 -18 -2 -32 -9 -32 -17
0 -7 -45 -59 -100 -115 -55 -56 -103 -114 -106 -129 -4 -14 -34 -55 -68 -91
-34 -36 -75 -82 -90 -103 -16 -21 -30 -36 -32 -34 -10 9 29 234 46 268 11 21
67 89 125 150 122 129 164 186 172 234 7 46 -5 105 -21 105 -8 0 -76 -58 -152
-129 -77 -71 -140 -128 -142 -127 -1 2 9 55 22 119 26 132 29 136 168 286 119
127 153 204 114 256 -13 19 -16 19 -49 3 -19 -9 -79 -59 -132 -110 l-98 -93 5
80 c6 99 25 137 145 291 47 60 97 133 110 161 23 49 23 56 11 100 -8 27 -20
49 -29 51 -9 1 -65 -45 -127 -104 l-112 -106 0 110 c0 61 -4 113 -9 116 -18
12 -53 -85 -63 -172 -6 -48 -8 -177 -5 -287 5 -203 -4 -509 -23 -780 -11 -155
-37 -393 -45 -405 -2 -3 -26 -119 -54 -256 -28 -139 -71 -313 -96 -394 -29
-91 -49 -172 -52 -218 -4 -46 -9 -68 -14 -60 -21 32 -50 125 -59 190 -11 72
-24 108 -40 108 -6 0 -10 -22 -10 -48 0 -60 -7 -68 -33 -36 -53 68 -36 -60 26
-185 38 -77 69 -101 160 -124 93 -24 293 -40 433 -35 106 3 127 7 176 31 71
35 146 116 189 203 27 53 33 78 34 137 1 61 7 83 37 142 64 128 111 302 127
478 6 62 18 121 27 140 29 54 34 94 43 332 7 164 15 249 27 295 25 91 25 267
1 336 -17 51 -17 52 4 105 32 80 37 259 11 394 -19 94 -19 102 -3 140 13 33
16 76 15 242 l-1 202 51 12 c28 6 88 14 134 16 77 5 85 4 124 -22 103 -68 208
-189 317 -365 79 -127 112 -161 172 -179 48 -14 65 -39 115 -168 27 -70 45
-101 76 -128 41 -38 150 -92 242 -121 50 -16 57 -16 94 -1 40 16 40 16 70 -13
17 -16 47 -32 68 -36 52 -10 328 2 394 16 198 44 212 147 41 302 -77 69 -180
121 -308 154 -184 47 -322 134 -363 229 -26 58 -64 107 -176 225 -117 124
-175 198 -234 300 -24 41 -70 114 -102 162 l-58 88 39 157 c44 174 71 289 71
304 0 5 -46 32 -102 60 -146 73 -204 116 -349 254 -133 128 -230 191 -280 183
-23 -3 -22 -5 11 -23 l35 -20 -37 -3 c-49 -4 -108 23 -187 87 -95 77 -94 51 3
-62 71 -84 116 -147 116 -164 0 -21 -42 -15 -101 15 -46 23 -57 34 -71 72 -47
120 -111 277 -161 390 -41 93 -52 128 -44 138 6 7 36 31 67 53 125 88 233 290
261 490 22 162 -22 335 -121 474 -61 86 -96 152 -86 162 4 5 131 11 281 15
316 7 359 15 422 77 22 21 82 99 132 174 50 74 101 141 114 149 12 8 56 18 97
22 41 4 109 19 150 33 60 20 85 23 125 18 120 -18 145 -13 226 37 102 64 129
92 129 136 0 40 -77 193 -122 243 -40 43 -50 25 -30 -55 20 -82 21 -121 2
-121 -10 0 -25 31 -47 95 l-31 95 5 -76 c4 -49 2 -79 -5 -83 -17 -10 -50 32
-73 93 -35 95 -27 130 31 131 14 0 31 4 39 9 24 15 -6 44 -38 37 -48 -9 -302
-136 -323 -161 -14 -16 -32 -25 -50 -25 -18 0 -37 -9 -51 -25 -16 -19 -38 -28
-82 -35 -47 -7 -66 -16 -87 -39 -28 -31 -48 -86 -48 -133 0 -42 -16 -41 -51 3
-41 52 -81 69 -166 69 -37 1 -84 7 -103 15 -19 7 -103 38 -187 68 -83 30 -177
69 -209 87 -53 29 -61 31 -95 21 -20 -6 -59 -30 -86 -54 -105 -93 -112 -97
-161 -97 -30 0 -77 13 -132 35 -93 38 -134 43 -167 20 -11 -8 -38 -17 -60 -21
-84 -13 -140 41 -276 272 -85 145 -105 185 -129 258 -38 118 -128 275 -196
342 -81 82 -251 196 -294 198 -55 2 -39 -25 47 -77 145 -88 208 -163 281 -333
61 -143 307 -631 338 -669 23 -28 26 -29 57 -18 18 7 35 10 38 8 7 -8 -40 -54
-89 -87 -25 -17 -73 -58 -107 -91 l-62 -60 -18 33 c-39 71 -134 212 -206 303
-103 132 -116 163 -127 294 -11 124 -17 153 -34 153 -22 0 -54 43 -86 113 -35
77 -140 387 -140 412 0 9 -13 50 -30 92 -61 151 -33 222 114 287 31 14 105 57
165 96 59 38 112 70 118 70 6 0 39 37 74 83 120 155 352 370 444 413 87 40
295 240 295 284 0 34 -19 32 -103 -14 -46 -26 -96 -46 -110 -46 l-25 0 -4 129
c-3 114 -6 133 -24 158 -16 20 -30 28 -55 29 -51 1 -51 1 -108 44 -29 22 -61
40 -70 40 -21 0 -51 30 -51 51 0 20 -45 86 -93 136 -55 57 -88 67 -201 58
l-92 -7 -12 85 c-25 174 -59 198 -77 53 -4 -33 -9 -65 -12 -72 -11 -29 -143
-45 -197 -24 -40 15 -35 61 18 150 55 96 60 112 45 158 -30 91 -78 132 -156
132 -68 0 -97 -17 -101 -60 -5 -46 -24 -66 -82 -85 -26 -9 -70 -31 -96 -50
-55 -40 -69 -42 -83 -17 -22 37 -32 -10 -29 -138 3 -109 7 -132 28 -175 38
-76 50 -70 50 23 0 113 39 193 110 222 35 15 38 26 8 33 -17 5 -19 9 -9 21 16
20 139 71 149 62 8 -9 -47 -56 -65 -56 -7 0 -17 -9 -23 -19 -13 -25 -13 -98 0
-106 6 -4 31 12 55 34 67 61 82 54 44 -21 -13 -25 -22 -63 -23 -93 -1 -57 7
-54 -122 -40 l-71 7 -7 -26 c-8 -34 2 -94 20 -123 27 -43 70 -56 155 -49 89 7
109 2 109 -28 0 -58 -73 -62 -196 -11 -46 19 -91 35 -99 35 -30 0 -14 -29 35
-64 61 -44 67 -72 14 -61 -26 4 -64 -2 -142 -26 -96 -29 -108 -31 -131 -18
-14 8 -27 24 -29 34 -6 31 -30 52 -67 59 -90 17 -17 56 105 56 89 0 90 1 70
70 -6 19 -15 109 -21 200 -9 152 -16 192 -26 164 -2 -6 -10 -19 -17 -29 -11
-15 -15 -1 -28 101 -9 66 -14 121 -12 123 2 3 18 -8 34 -24 16 -16 33 -25 37
-21 13 13 -21 61 -57 78 -43 22 -148 24 -175 4 -22 -16 -14 -46 12 -46 34 0
61 -29 73 -79 9 -40 8 -66 -5 -142 -32 -180 -34 -170 34 -281 20 -33 21 -39 7
-44 -29 -11 -86 6 -121 37 -60 53 -63 100 -19 262 17 61 17 68 2 83 -14 14
-17 13 -35 -13 -34 -47 -89 -163 -122 -256 -43 -121 -42 -186 1 -252 31 -47
31 -48 17 -94 -20 -64 -17 -168 5 -211 10 -19 40 -56 67 -81 l49 -46 -6 -60
c-5 -46 -3 -67 11 -94 24 -47 105 -147 159 -197 43 -40 54 -44 156 -57 71 -9
79 -17 55 -61 -20 -37 -110 -117 -154 -137 -21 -10 -28 -6 -75 44 -28 30 -82
94 -119 142 -38 48 -113 134 -167 191 -55 57 -115 129 -134 159 -22 34 -64
140 -112 278 -96 281 -162 448 -225 568 -56 108 -57 94 12 266 26 66 51 137
54 158 6 31 11 37 32 37 21 0 30 12 64 84 21 46 72 171 113 278 93 242 157
391 256 588 43 85 83 173 89 195 6 23 25 54 42 70 80 77 139 194 139 277 0 60
18 119 51 163 53 73 81 139 70 169 -13 33 -53 44 -86 22 -14 -9 -51 -56 -83
-103 -69 -105 -86 -117 -113 -84 -35 43 -21 111 40 189 14 18 72 71 128 118
119 99 165 148 157 169 -11 27 -43 27 -89 1 -57 -34 -68 -33 -63 5 3 22 -1 34
-14 43 -14 10 -17 20 -12 44 11 57 -17 40 -96 -56 -28 -35 -57 -61 -63 -59 -8
2 -12 33 -12 89 0 70 -4 90 -19 107 -22 24 -48 27 -65 8z m-158 -554 c78 -177
96 -241 138 -476 7 -45 20 -78 36 -98 24 -28 24 -29 9 -81 -9 -29 -34 -87 -56
-128 -23 -41 -70 -136 -105 -210 -117 -244 -150 -305 -168 -308 -41 -8 -28 55
24 119 12 15 25 48 30 75 13 69 82 206 134 264 25 28 45 59 45 70 0 11 9 25
20 32 26 17 25 24 -7 53 -33 29 -24 40 40 50 l38 7 -50 53 c-28 29 -53 66 -57
81 -22 94 -58 224 -90 324 -35 114 -58 280 -38 280 5 0 31 -48 57 -107z m392
-205 c-24 -158 -42 -190 -75 -136 -32 53 -26 82 26 133 25 25 48 45 51 45 3 0
2 -19 -2 -42z m-415 -406 c0 -17 -33 -53 -63 -69 -41 -22 -237 -113 -351 -164
-213 -95 -65 12 211 153 161 83 203 99 203 80z m-180 -215 c0 -19 -29 -43 -70
-60 -97 -40 -105 -29 -24 31 57 42 94 53 94 29z m-400 -85 c0 -15 -70 -82
-113 -109 -23 -14 -80 -62 -127 -107 -47 -45 -123 -110 -168 -145 -75 -57 -86
-62 -108 -52 -13 6 -24 17 -24 25 0 36 212 203 430 338 94 58 110 65 110 50z
m150 -94 c0 -6 -12 -26 -26 -45 -20 -27 -23 -37 -14 -48 14 -17 8 -26 -81
-127 -73 -82 -84 -102 -70 -136 5 -15 11 -38 13 -52 3 -22 8 -25 48 -28 54 -4
76 -18 59 -38 -6 -8 -22 -14 -35 -14 -12 0 -26 -5 -29 -10 -10 -16 14 -40 40
-40 37 0 55 -11 55 -32 0 -18 -4 -19 -34 -14 -38 7 -428 188 -421 195 3 2 45
7 95 12 102 8 140 26 140 64 0 16 21 47 59 89 35 39 61 78 65 97 4 20 26 52
60 86 52 52 76 65 76 41z m-100 -630 c35 -18 85 -53 111 -78 43 -41 49 -51 49
-87 0 -23 -23 -112 -51 -198 l-50 -157 26 -66 c54 -133 229 -592 306 -801 43
-118 87 -228 97 -245 21 -36 46 -40 50 -8 7 45 41 20 118 -88 21 -30 80 -102
129 -160 105 -123 138 -167 133 -179 -10 -29 -324 -384 -404 -458 -91 -82
-217 -226 -315 -357 -35 -47 -45 -55 -47 -40 -2 11 18 101 43 199 98 389 92
459 -83 965 -208 600 -363 1085 -377 1184 l-7 46 36 0 c48 0 48 23 1 91 -19
28 -35 58 -35 66 0 21 89 302 107 336 21 42 50 67 77 67 13 0 51 -15 86 -32z
m1750 -693 c21 -25 -6 -63 -54 -77 -23 -7 -51 -22 -63 -35 -24 -25 -52 -30
-71 -11 -18 18 -14 73 6 91 48 43 157 62 182 32z m259 -25 c71 -12 135 -41
145 -66 6 -16 -5 -16 -66 2 -37 11 -17 -24 22 -40 44 -17 53 -38 48 -102 -2
-29 -9 -42 -26 -50 -35 -17 -65 -7 -57 20 4 11 8 37 9 56 1 41 -24 52 -55 24
-23 -21 -24 -43 -4 -108 8 -27 15 -55 15 -63 0 -18 -20 -16 -42 4 -23 21 -25
127 -3 180 20 48 20 48 -21 17 -43 -33 -49 -27 -59 59 -5 45 -3 62 7 68 16 11
11 11 87 -1z m-558 -250 c11 -6 19 -21 19 -36 0 -29 -16 -64 -30 -64 -13 0
-60 72 -60 92 0 21 39 25 71 8z m875 -5 c38 -16 64 -62 64 -113 0 -38 -10 -46
-27 -22 -17 25 -80 37 -106 21 -16 -10 -22 -10 -34 2 -20 20 -29 93 -13 112
16 19 70 19 116 0z m-1546 -62 c35 -31 50 -97 31 -129 -9 -17 -10 -16 -11 9 0
32 -13 60 -46 100 -43 51 -24 65 26 20z m1740 -33 c33 -33 20 -103 -25 -140
-15 -12 -19 -12 -31 5 -16 22 -18 92 -4 129 11 31 33 33 60 6z m-1269 -50 c33
-18 49 -64 49 -140 0 -38 3 -70 8 -70 4 0 15 19 26 43 18 41 19 41 26 17 5
-14 8 -46 9 -73 2 -89 56 -204 115 -242 13 -8 87 -24 166 -35 163 -23 190 -29
208 -43 22 -17 14 -64 -18 -100 -50 -57 -31 -96 20 -42 29 31 40 32 40 2 0
-21 38 -86 96 -164 15 -21 14 -23 -28 -53 -96 -71 -261 -132 -359 -134 -82 -1
-111 17 -222 139 l-78 85 10 177 c6 98 12 196 13 218 l2 40 -69 -3 c-80 -4
-135 -25 -187 -71 -39 -34 -63 -39 -72 -15 -5 13 -15 15 -54 9 -44 -6 -52 -4
-82 21 -37 32 -60 79 -60 124 0 40 15 38 79 -10 62 -47 83 -49 134 -15 34 24
37 24 37 7 0 -21 -21 -42 -65 -65 -28 -15 -29 -16 -6 -17 24 0 57 30 120 110
19 23 49 51 67 62 19 11 31 25 28 33 -3 7 8 23 25 36 17 13 31 26 31 29 0 4
-51 10 -114 13 -123 7 -211 31 -171 47 11 5 30 9 43 9 13 1 36 14 52 29 44 44
136 66 181 42z m827 -23 c2 -9 -4 -20 -13 -23 -18 -7 -58 24 -49 38 10 16 59
4 62 -15z m41 -87 c20 -25 40 -40 54 -40 38 0 67 -27 67 -64 0 -46 -31 -70
-124 -96 -87 -24 -96 -21 -96 35 1 93 32 205 59 205 4 0 22 -18 40 -40z m311
14 c7 -18 7 -33 -2 -51 -25 -50 -46 -23 -33 43 7 41 22 44 35 8z m-116 -55
c30 -44 31 -72 3 -77 -31 -6 -47 17 -47 69 0 27 4 49 9 49 4 0 20 -18 35 -41z
m-760 -34 c3 -8 8 -36 11 -62 6 -54 -6 -86 -26 -66 -13 13 -25 104 -16 128 8
19 23 19 31 0z m921 -32 c-22 -15 -79 -18 -70 -3 8 12 67 29 79 22 5 -3 1 -11
-9 -19z m-657 -146 c2 -9 -4 -20 -13 -23 -18 -7 -58 24 -49 38 10 16 59 4 62
-15z m209 -191 c-8 -19 -37 -21 -37 -3 0 7 5 18 12 25 15 15 33 -1 25 -22z
m-740 -271 c24 -54 60 -148 79 -209 20 -61 52 -139 72 -174 26 -48 36 -79 40
-128 4 -60 13 -77 27 -54 16 25 23 3 29 -92 4 -57 18 -159 32 -228 13 -69 24
-135 24 -147 0 -11 -23 -67 -51 -123 -62 -124 -125 -193 -332 -367 -195 -163
-241 -190 -218 -130 5 13 23 94 41 180 17 87 40 183 51 215 18 52 18 59 4 95
-19 48 -40 225 -60 522 -22 308 -12 410 53 529 39 73 144 216 156 213 5 -2 29
-47 53 -102z m-577 -540 c0 -3 -16 -28 -35 -56 -38 -56 -41 -66 -23 -103 16
-37 81 -63 173 -70 122 -9 157 -45 176 -182 16 -113 0 -377 -25 -401 -3 -4
-14 1 -24 10 -24 22 -28 21 -62 -3 -40 -29 -48 -8 -15 40 36 52 15 87 -23 40
-10 -11 -33 -23 -52 -26 -52 -8 -81 20 -114 108 -32 87 -57 124 -79 115 -13
-5 -14 -12 -6 -39 13 -46 12 -48 -20 -48 -38 0 -78 -41 -91 -94 -17 -63 -18
-66 -36 -66 -14 0 -15 11 -9 100 l7 100 -47 -7 c-46 -6 -47 -5 -40 17 4 13 32
75 61 138 30 63 54 121 54 129 0 12 -9 14 -45 9 -91 -14 -63 47 48 107 39 20
83 57 129 109 60 66 98 94 98 73z m996 -429 c4 -19 2 -26 -9 -26 -19 0 -27 22
-26 73 l1 42 13 -31 c8 -17 17 -43 21 -58z m86 -126 c30 -30 35 -65 9 -65 -16
0 -46 40 -56 73 -9 31 10 28 47 -8z m-144 -73 c39 -60 131 -157 150 -157 5 0
17 9 27 20 24 27 35 17 35 -33 0 -53 -36 -127 -72 -147 -24 -13 -30 -13 -63 3
-69 33 -174 15 -239 -42 -18 -15 -18 -13 -15 69 4 81 7 91 69 217 36 73 65
132 66 133 1 0 20 -28 42 -63z m-1678 -179 l55 -13 -50 -3 c-55 -4 -217 14
-261 29 -45 14 191 3 256 -13z m389 -180 c-1 -78 -17 -149 -36 -155 -6 -2 -13
6 -15 19 -3 20 -10 23 -50 26 -27 2 -48 6 -48 10 0 4 16 16 36 27 34 18 61 51
50 62 -2 3 -35 0 -73 -6 -37 -6 -156 -20 -264 -31 -109 -11 -214 -26 -235 -33
l-39 -12 2 -68 c1 -75 -9 -82 -39 -27 -44 82 0 238 47 166 14 -21 20 -22 58
-15 23 4 128 17 232 29 222 25 323 44 344 65 26 26 31 17 30 -57z m323 1 c86
-50 263 -183 443 -331 l139 -115 78 68 c87 74 135 102 223 124 80 21 141 56
219 126 129 114 136 112 244 -81 17 -30 62 -97 101 -149 38 -52 72 -108 75
-125 10 -48 -13 -185 -33 -195 -30 -16 -303 -34 -418 -27 -68 4 -113 3 -113
-2 0 -14 60 -24 197 -31 67 -4 125 -10 129 -13 3 -4 4 -14 1 -22 -21 -53 -248
-85 -363 -51 -89 26 -209 110 -430 300 -124 107 -212 165 -250 165 -28 0 -32
4 -38 33 -8 40 -110 140 -185 181 -48 26 -67 29 -175 35 -66 4 -127 10 -133
14 -7 5 -13 21 -13 36 0 59 107 117 195 105 22 -3 70 -23 107 -45z m3948 -28
c30 -21 37 -58 16 -86 -15 -20 -15 -20 -55 3 -38 21 -43 22 -71 7 -47 -24
-289 -320 -460 -563 -39 -55 -77 -105 -84 -111 -7 -6 -41 -18 -76 -27 -50 -12
-101 -15 -249 -12 -200 4 -231 10 -231 52 0 42 24 51 154 55 l121 3 65 43 c68
45 168 90 178 80 10 -10 -61 -73 -113 -99 l-50 -25 35 -1 c60 0 113 45 283
245 198 232 357 399 417 437 49 31 76 31 120 -1z m-1141 -137 c25 -7 55 -20
66 -29 19 -15 15 -15 -45 -10 -93 9 -173 24 -183 34 -34 34 56 37 162 5z
m-671 -48 l3 -39 20 31 c14 25 26 32 49 32 45 0 58 -34 35 -94 -10 -26 -15
-50 -11 -54 11 -11 44 35 57 79 7 21 15 39 19 39 11 0 92 -59 134 -99 142
-133 195 -354 123 -513 -14 -32 -27 -58 -29 -58 -2 0 -3 31 -3 70 0 58 -4 73
-22 91 -28 28 -47 20 -72 -30 -28 -53 -103 -90 -209 -102 -42 -4 -117 -12
-167 -18 -105 -11 -176 -33 -224 -69 -49 -36 -24 -38 56 -4 92 39 156 52 261
52 159 0 263 -42 373 -150 108 -107 166 -234 176 -390 10 -168 -40 -305 -164
-443 -40 -45 -79 -97 -85 -114 -7 -18 -15 -33 -19 -33 -10 0 -90 130 -125 202
-48 99 -63 87 -95 -74 -33 -169 -40 -177 -140 -164 -62 8 -188 51 -207 69 -12
13 -10 15 13 15 31 0 68 32 86 74 9 23 9 43 -1 98 -19 101 -15 104 125 97 125
-6 212 -23 237 -44 9 -8 24 -45 33 -82 9 -36 20 -73 24 -80 22 -34 149 41 170
100 30 87 2 195 -61 235 -21 14 -43 36 -48 50 -13 34 -32 39 -74 19 -49 -24
-96 -79 -96 -114 0 -51 -13 -54 -253 -59 l-222 -5 58 -20 c32 -10 56 -24 54
-30 -9 -29 -60 -52 -115 -53 -31 -1 -63 -2 -71 -3 -9 -1 -12 -11 -9 -36 l4
-35 -29 28 c-75 72 -146 293 -133 413 12 104 70 239 102 239 8 0 14 -8 14 -18
0 -27 53 -96 92 -120 19 -12 62 -29 95 -37 81 -21 135 -9 173 37 l28 33 228
-3 c200 -3 227 -2 210 11 -16 12 -18 22 -13 62 9 62 -7 119 -40 144 -23 19
-39 21 -157 20 l-131 -1 74 -12 c87 -13 105 -30 81 -74 -9 -15 -25 -28 -35
-30 -33 -6 -40 -20 -21 -41 30 -33 11 -41 -95 -41 -108 0 -139 9 -139 41 0 11
-16 35 -35 52 -20 18 -40 47 -45 68 -13 46 -63 74 -117 64 -43 -8 -75 11 -93
54 -16 40 -6 53 71 92 80 40 190 75 279 89 105 16 112 20 60 36 -60 18 -80 42
-120 142 -37 94 -75 142 -114 142 -34 0 -32 -10 8 -40 73 -54 66 -82 -23 -88
-59 -4 -77 -14 -46 -26 8 -3 15 -15 15 -26 0 -17 -4 -19 -25 -14 -14 3 -25 3
-25 0 0 -15 29 -62 49 -80 30 -27 26 -53 -10 -72 -69 -35 -102 4 -114 136 -4
41 -14 85 -21 98 -19 29 -59 29 -75 0 -20 -37 1 -217 37 -313 7 -20 7 -20 -14
-1 -38 33 -57 102 -56 201 1 148 40 281 98 334 24 23 26 23 26 5 0 -10 -4 -36
-9 -57 -11 -47 -4 -77 18 -77 9 0 61 34 116 75 54 41 122 84 152 96 38 15 55
28 59 44 16 64 -16 78 -110 45 -69 -24 -86 -25 -86 -7 0 26 154 78 220 74 33
-2 35 -4 38 -41z m1462 28 c0 -25 -86 -106 -107 -102 -10 2 -22 16 -27 31 -12
33 2 47 45 47 15 0 37 9 50 20 29 24 39 25 39 4z m264 -76 c20 -28 21 -58 2
-58 -20 0 -56 48 -49 66 8 21 30 17 47 -8z m-3723 -300 c73 -31 89 -98 23 -98
-35 0 -123 36 -150 61 -24 22 -31 49 -17 63 11 10 93 -4 144 -26z m337 -17
c20 -11 84 -59 142 -107 129 -108 223 -169 298 -196 82 -29 216 -33 406 -14
87 9 160 16 161 14 1 -2 17 -32 35 -68 28 -55 32 -71 27 -116 -7 -67 -39 -139
-69 -155 -12 -7 -70 -21 -126 -31 -57 -10 -136 -30 -175 -43 -88 -31 -116 -31
-204 0 -38 13 -103 32 -144 41 -41 9 -92 25 -113 36 -61 31 -126 105 -186 212
-30 53 -66 107 -79 119 l-24 22 8 -40 c9 -54 69 -181 107 -229 l31 -38 -29
-28 c-57 -56 -184 -121 -184 -93 0 3 14 31 31 61 40 71 37 106 -9 110 l-33 3
32 22 c51 35 57 52 30 81 -13 14 -25 42 -28 68 -8 61 -16 73 -70 98 -46 22
-47 23 -23 32 24 9 40 25 40 41 0 4 -18 26 -41 48 -31 30 -40 46 -37 67 8 70
128 -16 128 -92 0 -43 17 -29 30 24 7 29 9 70 5 99 -10 76 0 84 63 52z m1538
-132 c16 -60 7 -79 -36 -79 -37 0 -42 8 -19 31 27 27 24 58 -7 70 l-27 10 23
25 c21 21 26 23 38 10 8 -8 21 -38 28 -67z m-2692 -7 c-51 -81 -164 -185 -181
-168 -8 8 41 70 121 154 51 53 72 69 74 57 2 -9 -4 -28 -14 -43z m521 -4 c14
-6 25 -17 25 -25 0 -21 -32 -15 -65 12 -28 23 -29 24 -8 25 12 0 34 -5 48 -12z
m-353 -278 c42 -16 85 -30 96 -30 31 0 137 -75 207 -146 103 -104 152 -203
166 -336 6 -64 13 -84 38 -115 84 -104 277 -471 327 -618 35 -105 42 -188 20
-251 -9 -27 -51 -100 -93 -161 -74 -109 -90 -152 -38 -103 14 13 27 21 30 19
4 -5 -177 -432 -236 -556 -39 -81 -67 -103 -134 -103 -29 0 -72 7 -96 15 -66
24 -235 142 -321 225 -77 74 -78 76 -68 109 20 69 95 193 219 361 94 128 171
243 171 258 0 8 -8 12 -22 10 -16 -2 -31 -19 -48 -50 -14 -27 -27 -48 -30 -47
-3 0 -18 21 -35 47 -16 26 -38 48 -49 50 -16 4 -18 0 -12 -33 l7 -36 -38 42
c-21 23 -97 86 -169 140 -212 158 -369 328 -429 463 -60 136 -79 364 -41 491
54 179 204 334 366 379 70 20 117 14 212 -24z m519 -181 c13 -27 17 -45 11
-51 -12 -12 -36 23 -46 65 -10 41 11 33 35 -14z m2749 -25 c23 -47 25 -183 4
-246 l-19 -53 -6 85 c-3 47 -10 123 -14 169 -7 70 -6 83 6 79 8 -2 21 -18 29
-34z m-2062 -60 c105 -21 232 -60 260 -80 22 -15 22 -17 6 -35 -9 -10 -50 -37
-91 -59 -170 -91 -291 -185 -505 -389 l-117 -112 -45 78 c-39 65 -46 86 -46
129 0 46 5 59 48 118 72 98 218 261 285 317 67 56 82 58 205 33z m517 -380
c-6 -71 -11 -91 -30 -110 -22 -22 -214 -89 -292 -101 -33 -6 -35 -5 -24 14 18
35 122 130 206 190 44 31 94 66 110 79 17 12 32 20 34 18 2 -2 0 -42 -4 -90z
m-440 -91 c9 -32 20 -75 26 -95 12 -47 33 -68 67 -67 15 0 86 20 157 44 161
54 160 55 151 -85 -6 -104 -58 -424 -81 -507 -29 -99 -40 -82 -105 151 l-40
146 105 133 c58 74 105 137 105 141 0 28 -82 -53 -189 -188 -39 -49 -71 -89
-71 -90 0 -1 20 -62 45 -136 59 -175 78 -250 61 -250 -13 0 -119 65 -215 132
-30 21 -59 38 -65 37 -6 0 -55 -56 -110 -124 -106 -132 -182 -213 -192 -202
-3 3 14 68 39 144 25 76 53 173 62 216 17 77 17 80 -2 105 -11 15 -46 49 -79
75 -32 26 -59 53 -59 60 0 6 47 31 105 55 57 23 115 53 128 64 14 14 34 59 53
123 58 193 78 215 104 118z m1555 -181 c49 -110 59 -159 37 -193 -9 -13 -25
-66 -37 -117 -22 -102 -53 -172 -74 -172 -19 0 -56 112 -56 166 0 24 11 87 24
141 13 54 29 140 36 191 7 51 16 89 20 85 4 -4 26 -50 50 -101z m-778 49 c15
-21 32 -58 38 -82 6 -24 15 -237 20 -474 6 -236 17 -650 25 -920 28 -879 29
-991 16 -1000 -7 -4 -17 -3 -23 3 -5 5 -16 139 -24 303 -7 162 -20 413 -28
559 -26 457 -29 591 -17 638 8 29 9 53 2 80 -19 70 -61 660 -61 855 0 89 10
97 52 38z m141 -47 c85 -43 162 -154 106 -154 -23 0 -120 94 -144 140 -18 34
-9 38 38 14z m342 -264 c87 -11 109 -32 154 -148 36 -95 91 -281 91 -310 0
-22 -27 -30 -160 -52 -36 -6 -88 -16 -117 -22 -42 -9 -56 -8 -68 2 -24 20 -46
68 -62 134 -7 33 -45 136 -84 228 -38 93 -67 174 -63 179 7 12 171 5 309 -11z
m415 -100 l5 -115 30 -5 c40 -7 41 -25 10 -115 -27 -78 -43 -210 -45 -360 -2
-126 -13 -135 -43 -35 -14 47 -44 147 -67 222 -53 178 -58 222 -32 268 11 19
30 69 42 110 27 93 59 152 80 148 12 -3 16 -25 20 -118z m-980 -165 c-6 -38
-27 -108 -46 -155 -20 -47 -40 -99 -46 -115 -8 -24 -1 -95 30 -320 23 -160 46
-337 52 -395 6 -58 13 -123 16 -145 3 -26 2 -37 -5 -30 -14 14 -44 172 -81
418 -17 114 -33 214 -37 222 -40 105 -113 -362 -143 -910 -24 -453 -35 -575
-53 -575 -25 0 8 842 43 1093 54 388 180 973 236 1098 l29 64 8 -90 c4 -55 3
-117 -3 -160z m-3080 220 c15 -19 8 -29 -40 -53 -41 -21 -48 -37 -20 -52 27
-14 108 0 259 46 134 40 226 56 270 48 67 -14 44 -37 -55 -58 -93 -20 -190
-55 -369 -136 -220 -99 -341 -135 -435 -128 l-45 3 0 40 c0 30 -4 40 -18 43
-33 7 -65 -7 -71 -31 -3 -13 -30 -41 -61 -63 -117 -83 -153 -113 -159 -137 -4
-18 -21 -33 -59 -51 -58 -27 -73 -40 -79 -71 -5 -30 -60 -44 -175 -44 -81 -1
-105 2 -118 15 -27 27 -38 3 -33 -75 5 -94 12 -100 90 -71 95 34 245 111 287
146 20 17 58 41 85 52 26 12 89 48 139 79 l91 58 101 -1 c105 -1 210 -18 221
-36 8 -13 7 -14 -306 -267 -135 -109 -266 -216 -292 -239 -26 -22 -58 -44 -70
-48 -13 -4 -77 -41 -143 -82 -162 -102 -302 -174 -410 -212 -114 -41 -246 -51
-345 -26 -96 24 -470 217 -470 243 0 5 134 75 298 157 384 191 706 361 851
447 63 38 119 69 123 69 9 0 -2 -67 -18 -107 -12 -32 -34 -42 -114 -56 -14 -2
-6 -5 20 -6 66 -1 117 16 158 54 35 32 36 34 18 48 -30 22 -10 37 48 37 50 0
54 2 66 30 15 37 57 74 148 133 76 49 89 64 74 79 -10 10 -16 8 -175 -76 -82
-43 -147 -59 -147 -36 0 22 117 101 180 121 36 11 141 55 235 97 93 41 208 88
255 103 98 32 190 38 210 14z m777 -102 c6 -16 -9 -33 -53 -59 -18 -11 -17
-13 14 -42 54 -51 36 -112 -33 -112 -39 0 -65 29 -65 70 1 39 34 103 69 133
37 31 59 34 68 10z m2624 -108 c16 -48 39 -136 51 -196 l21 -108 -26 -58 c-14
-32 -31 -79 -38 -106 -6 -26 -15 -49 -19 -52 -9 -6 -37 128 -50 240 -11 99
-13 337 -3 373 5 21 8 22 20 9 8 -8 28 -54 44 -102z m-2446 55 c-3 -5 -15 -10
-25 -10 -10 0 -22 5 -25 10 -4 6 7 10 25 10 18 0 29 -4 25 -10z m-355 -41 c0
-26 -29 -89 -41 -89 -12 0 -11 52 1 84 12 31 40 35 40 5z m1993 -162 c21 -19
37 -39 37 -45 0 -20 -96 -95 -165 -128 -77 -37 -182 -61 -197 -46 -6 6 -2 34
11 77 26 84 26 121 1 163 -11 18 -20 38 -20 44 0 7 21 34 46 59 l47 48 102
-69 c56 -37 118 -84 138 -103z m-1485 133 c21 0 13 -27 -10 -34 -36 -9 -158
-7 -158 3 0 16 98 42 135 35 11 -2 26 -4 33 -4z m3082 -119 c0 -17 -4 -33 -10
-36 -6 -4 -10 8 -10 29 0 20 5 36 10 36 6 0 10 -13 10 -29z m629 -276 c38 -77
81 -176 96 -220 15 -45 47 -110 72 -147 l46 -68 -63 -137 c-71 -155 -93 -213
-81 -213 21 0 225 386 238 450 l6 34 -43 -37 c-24 -20 -47 -37 -52 -37 -4 0
-8 19 -8 43 0 52 -21 124 -55 191 -13 27 -22 53 -19 57 3 5 30 -8 59 -30 30
-21 82 -49 116 -61 78 -29 83 -43 64 -158 -19 -108 -47 -196 -92 -287 -81
-163 -171 -248 -363 -343 -122 -60 -142 -67 -207 -70 -59 -3 -73 -1 -73 10 0
8 31 49 70 91 111 122 108 99 45 349 -70 281 -72 296 -46 397 20 76 100 308
136 395 l17 40 34 -55 c19 -30 65 -117 103 -194z m-475 128 c117 -29 216 -95
216 -144 0 -34 -21 -31 -58 9 -46 49 -76 64 -181 91 -89 22 -136 45 -125 62 7
12 55 6 148 -18z m-446 11 c13 -4 22 -14 22 -26 0 -11 7 -32 16 -48 33 -55 9
-68 -178 -96 -133 -19 -172 -17 -176 12 -4 26 26 47 99 69 85 26 101 36 49 29
-111 -13 -154 -26 -183 -56 -28 -27 -29 -32 -23 -86 4 -42 3 -52 -5 -39 -23
38 -31 8 -64 -243 -19 -144 -45 -270 -56 -270 -15 0 -10 88 16 280 36 265 54
356 77 385 22 29 107 58 218 74 41 6 86 13 100 15 43 6 64 6 88 0z m573 -177
c4 -15 4 -39 0 -53 -5 -21 -9 -23 -17 -13 -15 18 -34 77 -34 102 0 18 2 18 22
5 12 -8 25 -27 29 -41z m-3516 -20 c36 -27 7 -35 -52 -16 -31 11 -59 21 -61
24 -12 12 96 4 113 -8z m1638 -31 c51 -21 70 -50 71 -107 1 -41 6 -54 26 -69
23 -17 25 -26 24 -87 -1 -85 -37 -197 -75 -235 -27 -28 -28 -28 -162 -28 -75
0 -142 3 -151 6 -9 3 -16 17 -16 30 0 17 -6 24 -19 24 -11 0 -23 -4 -26 -10
-13 -22 -35 -8 -44 28 -28 112 -20 216 24 301 24 46 69 101 83 101 4 0 16 -14
26 -30 21 -36 36 -31 36 13 0 40 9 53 40 66 37 14 126 13 163 -3z m1381 -5 c9
-10 26 -43 37 -72 36 -94 58 -103 84 -34 10 24 21 43 25 40 4 -3 12 -24 19
-48 16 -66 83 -158 166 -229 40 -34 74 -66 74 -69 1 -4 -137 -9 -306 -11 -170
-3 -316 -8 -325 -12 -13 -6 -22 0 -37 25 -22 36 -70 222 -78 306 -5 50 -5 53
22 63 22 8 250 54 291 59 6 0 19 -7 28 -18z m-3186 -65 c27 -75 253 -254 444
-352 140 -71 235 -104 323 -111 62 -4 76 -2 117 20 25 14 49 23 52 20 12 -13
-18 -43 -88 -88 -48 -31 -81 -61 -94 -84 -31 -57 -91 -223 -113 -318 -12 -48
-27 -100 -35 -115 -24 -47 -47 -53 -204 -53 -170 0 -193 6 -375 98 -105 53
-131 71 -206 146 -97 97 -149 180 -210 331 l-40 100 109 118 c60 64 147 160
192 212 79 91 98 110 110 110 4 0 12 -15 18 -34z m-590 -18 c26 -55 44 -218
23 -218 -17 0 -53 114 -59 184 -4 56 -2 68 9 64 8 -2 20 -16 27 -30z m-344
-10 c-10 -13 -60 -66 -110 -119 -105 -111 -145 -161 -148 -186 -2 -10 -13 -19
-26 -21 -30 -5 -151 -125 -173 -173 -20 -43 -33 -55 -70 -64 -18 -5 -29 -16
-33 -34 -12 -49 -32 -71 -66 -71 -33 0 -68 24 -68 47 0 7 36 50 81 95 92 92
139 153 139 180 0 28 -21 22 -145 -43 -64 -33 -124 -59 -133 -57 -23 5 135
109 361 238 98 56 224 131 279 166 107 67 147 82 112 42z m2356 -30 c-1 -7 -9
-38 -20 -68 -13 -37 -19 -82 -20 -138 0 -73 -2 -83 -17 -80 -26 5 -34 55 -23
131 14 92 46 167 71 167 5 0 9 -6 9 -12z m1394 -75 c3 -10 17 -71 31 -136 l26
-118 -21 -34 c-24 -39 -118 -117 -134 -112 -6 2 -12 32 -14 67 -7 148 85 422
112 333z m-1516 -15 c-6 -17 -55 -28 -90 -21 -48 9 -10 29 60 32 22 1 32 -3
30 -11z m-23 -88 c10 -17 -40 -29 -163 -41 -158 -16 -164 -16 -169 -3 -6 18
23 24 155 34 68 5 127 11 130 14 9 10 40 7 47 -4z m-60 -117 c-36 -14 -256
-31 -229 -18 26 13 154 33 209 33 l60 1 -40 -16z m5 -93 c0 -5 -14 -10 -31
-10 -17 0 -28 4 -24 10 3 6 17 10 31 10 13 0 24 -4 24 -10z m666 -150 c-24
-103 -104 -361 -206 -665 -50 -148 -94 -278 -97 -287 -8 -27 -23 -22 -23 7 0
15 -7 40 -16 57 -15 28 -15 37 1 102 24 100 281 781 328 869 21 42 22 42 25
14 2 -15 -4 -59 -12 -97z m-716 51 l25 -7 -25 -7 c-47 -14 -280 -21 -280 -9 0
7 10 14 23 16 12 3 31 7 42 9 33 7 188 6 215 -2z m3280 -103 c1 -75 68 -194
200 -353 97 -117 120 -152 120 -183 0 -32 -46 -109 -81 -135 -17 -12 -29 -30
-29 -43 0 -60 -71 -51 -136 19 -22 23 -58 65 -79 92 -21 28 -66 81 -99 118
l-59 68 51 180 c54 189 84 269 101 269 6 0 11 -15 11 -32z m-3386 3 c10 -15
-22 -21 -112 -21 -53 0 -82 4 -76 9 18 18 178 28 188 12z m-2154 -97 c0 -8
-13 -86 -29 -172 -27 -141 -69 -418 -85 -559 -5 -42 -4 -53 8 -53 20 0 126
136 321 415 178 254 249 350 266 361 6 3 16 1 22 -5 9 -9 4 -28 -21 -76 -41
-78 -499 -690 -544 -725 -26 -21 -42 -25 -95 -25 -61 0 -66 2 -98 36 -46 50
-215 337 -215 365 0 13 11 36 25 51 l25 28 29 -33 c36 -42 133 -229 156 -302
22 -68 25 -74 35 -63 9 9 36 169 71 423 26 186 42 253 69 280 11 11 20 28 20
38 0 10 3 22 7 25 12 13 33 7 33 -9z m2040 7 c0 -5 -20 -17 -45 -26 -36 -14
-48 -15 -60 -5 -26 21 1 40 56 40 27 0 49 -4 49 -9z m-2180 -39 c0 -51 -28
-276 -41 -335 -18 -77 -84 -103 -135 -52 -28 28 -114 199 -114 227 0 32 95
114 181 157 45 23 88 41 95 41 10 0 14 -12 14 -38z m5498 14 c2 -10 -1 -23 -8
-30 -14 -14 -41 19 -33 40 8 20 37 13 41 -10z m-5148 -11 c56 -29 110 -76 110
-95 0 -27 -6 -26 -83 15 -86 46 -115 47 -66 2 19 -17 57 -44 83 -60 l47 -27
-48 -68 c-118 -167 -224 -312 -233 -317 -14 -8 -14 -11 20 233 35 249 45 300
68 325 17 19 54 16 102 -8z m2393 -12 c-5 -13 -43 -19 -43 -6 0 3 8 15 17 25
18 20 36 7 26 -19z m-4068 -55 c23 -28 25 -34 11 -36 -21 -4 -83 34 -97 59
-28 53 37 36 86 -23z m317 18 c64 -26 167 -97 217 -150 l35 -36 -66 0 c-122 0
-311 44 -331 77 -6 10 15 102 27 122 11 17 56 12 118 -13z m3130 -3 l43 -18
-30 -5 c-44 -8 -89 3 -93 23 -4 22 25 22 80 0z m938 -308 c-124 -454 -162
-575 -181 -575 -17 0 -9 77 16 161 14 46 52 179 86 294 74 258 107 361 128
400 l16 30 3 -25 c2 -14 -29 -143 -68 -285z m-881 226 c7 -5 9 -11 5 -14 -19
-10 -121 -16 -159 -8 l-40 8 40 7 c22 4 47 9 55 11 32 6 86 4 99 -4z m539 -68
c-10 -2 -28 -2 -40 0 -13 2 -5 4 17 4 22 1 32 -1 23 -4z m-623 -23 c4 -6 -12
-10 -40 -10 -28 0 -44 4 -40 10 3 6 21 10 40 10 19 0 37 -4 40 -10z m-1352
-61 c69 -36 238 -154 304 -214 46 -42 64 -65 69 -91 12 -64 -8 -58 -97 28 -46
46 -148 128 -227 183 -78 55 -142 103 -142 108 0 14 52 7 93 -14z m1851 -25
c22 -8 21 -72 -2 -106 -9 -14 -35 -47 -56 -73 -23 -27 -44 -66 -51 -93 -9 -35
-18 -48 -36 -53 -13 -4 -124 -7 -246 -8 l-221 -1 -7 53 c-3 28 -13 90 -21 137
-8 47 -10 88 -5 93 15 15 82 26 236 37 82 6 166 12 185 14 67 6 208 6 224 0z
m-1921 -38 c68 -41 242 -183 339 -275 72 -70 82 -96 53 -135 -8 -11 -15 -40
-15 -64 0 -32 -8 -55 -30 -87 -32 -47 -109 -115 -130 -115 -7 0 -51 29 -99 63
-47 35 -148 105 -223 156 -75 51 -153 107 -174 125 l-38 33 27 45 c53 91 208
288 226 288 4 0 33 -16 64 -34z m936 -40 c13 -16 5 -64 -28 -159 -11 -33 -28
-93 -36 -135 -9 -43 -24 -93 -34 -112 -10 -19 -37 -70 -60 -113 -44 -84 -54
-140 -23 -135 11 2 18 -4 20 -18 4 -30 -52 -330 -94 -504 -24 -98 -38 -184
-43 -267 -7 -95 -13 -131 -30 -165 -24 -46 -98 -128 -116 -128 -33 0 -160 184
-246 354 -58 116 -58 113 7 259 49 108 53 133 24 142 -35 11 -42 39 -30 117
21 138 80 226 144 214 39 -7 48 -1 74 49 11 22 30 46 41 52 11 7 24 27 29 45
12 47 26 44 52 -12 13 -27 32 -58 43 -67 20 -18 20 -17 14 57 -7 84 -46 222
-72 250 -12 14 -25 17 -46 13 -16 -3 -29 -4 -29 -2 0 2 7 22 14 44 14 38 17
40 52 38 l37 -3 -6 53 c-4 29 -9 67 -13 83 l-6 31 134 7 c73 3 149 10 168 15
19 5 38 9 41 10 4 1 12 -5 18 -13z m-2020 -77 c34 -46 67 -126 57 -136 -16
-16 -133 148 -120 168 11 19 35 7 63 -32z m4038 -26 c-2 -16 -4 -5 -4 22 0 28
2 40 4 28 2 -13 2 -35 0 -50z m2536 -90 c101 -96 166 -136 303 -184 49 -17 93
-35 98 -39 5 -6 -3 -24 -20 -45 -16 -20 -44 -54 -61 -76 -18 -22 -33 -47 -33
-55 0 -23 27 -16 49 14 l22 27 15 -22 c9 -13 22 -23 28 -23 18 0 44 51 57 109
6 29 17 55 25 58 8 3 39 -10 70 -28 61 -37 194 -157 194 -175 0 -19 -52 -24
-305 -30 -261 -6 -240 -9 -342 51 -30 19 -32 19 -65 1 -28 -15 -40 -16 -75 -7
-64 17 -124 68 -156 131 -34 70 -55 164 -41 188 8 14 80 56 129 75 6 2 2 18
-9 39 -15 28 -16 39 -7 56 6 12 16 22 22 22 5 0 51 -39 102 -87z m-2332 25
c14 -26 2 -58 -21 -58 -23 0 -43 57 -28 77 12 15 36 6 49 -19z m-1611 -142
c53 -10 109 -30 188 -70 l112 -56 0 -348 c0 -191 -5 -395 -10 -454 -11 -111
-43 -253 -79 -349 -26 -68 -13 -64 -256 -79 -93 -5 -268 -17 -387 -26 -119 -9
-224 -14 -232 -11 -28 11 -17 37 20 53 19 8 124 28 232 44 233 35 285 45 375
71 58 17 72 26 98 62 89 122 217 440 193 479 -9 15 -29 -20 -69 -120 -85 -211
-161 -280 -283 -256 l-31 6 50 62 c102 125 124 206 123 446 -1 197 -12 253
-52 258 -13 2 -32 -4 -43 -14 -18 -16 -20 -15 -57 22 -46 49 -109 81 -125 65
-17 -17 -46 -13 -124 13 -119 40 -152 67 -57 46 45 -10 50 -10 67 11 14 18 18
36 15 78 -3 51 -1 56 22 68 33 17 213 16 310 -1z m330 -38 c52 -23 118 -46
145 -53 44 -10 51 -16 62 -46 15 -43 17 -441 3 -577 -29 -273 -79 -489 -132
-564 -17 -25 -24 -27 -73 -25 -40 1 -58 -3 -74 -17 l-20 -18 20 68 c54 184 83
403 99 754 12 244 7 329 -24 388 -8 16 -47 51 -86 76 -38 26 -70 51 -70 57 0
16 39 4 150 -43z m-3017 31 c12 -6 37 -25 55 -42 31 -30 34 -31 65 -18 51 21
82 20 82 -4 0 -27 -78 -67 -113 -58 -24 6 -25 4 -18 -28 3 -18 18 -45 31 -59
14 -14 25 -32 25 -39 0 -34 -164 -191 -182 -173 -5 5 3 40 18 81 l27 72 -24
25 c-21 23 -22 28 -11 69 16 61 15 91 -4 121 -16 23 -15 26 1 44 21 23 20 23
48 9z m1605 -98 c2 -23 0 -32 -9 -29 -20 7 -33 34 -26 52 11 27 32 13 35 -23z
m2602 -76 c30 -32 37 -31 73 3 l30 27 -7 -123 c-9 -164 -40 -344 -69 -396 -24
-44 -55 -57 -76 -32 -17 20 -6 50 35 96 53 59 64 95 64 220 0 60 -4 110 -8
110 -4 0 -19 -41 -32 -91 -28 -102 -44 -124 -67 -94 -18 25 -14 247 5 283 16
28 23 28 52 -3z m-1865 -65 c44 -18 127 -49 185 -70 98 -35 106 -40 125 -76
28 -55 33 -226 10 -329 -36 -163 -144 -319 -257 -370 -29 -13 -91 -31 -138
-39 -105 -19 -309 -40 -316 -34 -12 13 55 187 125 320 42 81 78 148 81 148 3
0 6 -23 8 -51 3 -62 24 -115 59 -151 51 -53 54 -44 51 140 -2 164 -1 168 25
219 33 65 35 93 6 93 -26 0 -82 -57 -111 -114 -11 -22 -45 -67 -74 -99 -30
-32 -61 -72 -70 -89 -11 -21 -19 -27 -26 -20 -7 7 -3 46 12 124 19 99 38 162
118 392 l16 48 46 -4 c25 -3 81 -20 125 -38z m-1349 -12 c68 -47 87 -77 92
-148 5 -63 -4 -130 -17 -130 -4 0 -37 24 -73 54 -45 37 -74 71 -92 107 -28 57
-32 83 -16 123 13 36 47 34 106 -6z m-467 -71 c53 -26 74 -53 52 -67 -23 -13
-131 -30 -199 -30 -54 0 -64 3 -77 24 -38 58 41 112 145 99 19 -3 55 -15 79
-26z m-339 -117 c-12 -22 -137 -132 -170 -150 -70 -37 3 51 104 126 64 48 83
55 66 24z m3453 -58 c44 -48 39 -116 -10 -128 -57 -15 -70 23 -14 42 32 10 32
10 11 29 -20 18 -29 75 -12 75 5 0 16 -8 25 -18z m-15 -184 c-2 -14 -11 -24
-23 -26 -45 -7 -47 -11 -26 -41 12 -16 21 -32 21 -35 0 -3 -18 -6 -39 -6 -22
0 -43 -4 -46 -10 -3 -5 -2 -10 4 -10 6 0 15 -9 21 -21 17 -30 -5 -52 -47 -47
-38 5 -42 -2 -13 -20 28 -17 25 -35 -11 -56 -21 -12 -40 -16 -64 -12 -70 13
-73 65 -7 109 23 16 60 55 82 86 48 71 93 111 126 111 21 0 25 -4 22 -22z
m-2840 -30 c16 -16 15 -45 -2 -51 -17 -7 -36 11 -36 33 0 30 18 38 38 18z
m-12 -132 c3 -14 3 -30 -1 -36 -11 -17 -35 8 -35 36 0 32 28 31 36 0z m-57
-74 c27 -53 36 -109 21 -127 -18 -22 -37 -3 -55 58 -30 101 -6 148 34 69z
m2599 -4 c32 -35 44 -74 27 -88 -22 -18 -75 39 -75 79 0 37 18 40 48 9z
m-2679 -66 c37 -73 64 -212 41 -212 -12 0 -22 21 -49 98 -43 125 -37 202 8
114z m3601 -411 c0 -9 -6 -26 -14 -37 -14 -18 -15 -18 -22 -1 -8 22 12 71 26
62 6 -3 10 -14 10 -24z m650 -73 c0 -10 -4 -18 -10 -18 -5 0 -10 15 -10 33 0
24 3 28 10 17 5 -8 10 -23 10 -32z m-656 -145 c-10 -40 -30 -54 -40 -28 -10
25 24 91 38 77 8 -8 9 -23 2 -49z m984 -7 c36 -91 31 -221 -16 -373 -8 -29
-19 -53 -24 -53 -13 0 -45 71 -57 127 -8 41 -8 60 4 92 7 22 16 73 20 113 12
143 15 159 33 156 10 -2 27 -27 40 -62z m-578 -186 c0 -25 -62 -152 -97 -197
-37 -50 -47 -43 -41 32 9 107 59 184 121 185 10 0 17 -8 17 -20z m446 -426
c20 -63 15 -97 -30 -191 -37 -76 -53 -94 -67 -72 -14 23 -10 62 10 102 14 27
17 46 12 65 -8 26 2 133 15 176 6 18 8 18 25 -5 10 -13 26 -47 35 -75z m-610
-88 c6 -16 -27 -86 -50 -105 -20 -16 -56 -11 -70 11 -14 22 16 64 64 89 42 23
49 23 56 5z"/>
<path d="M3756 8715 c-9 -24 -6 -326 4 -350 7 -18 9 -17 16 10 13 45 11 332
-2 345 -8 8 -13 7 -18 -5z"/>
<path d="M3490 8573 c0 -25 43 -97 55 -92 23 10 -13 109 -40 109 -8 0 -15 -8
-15 -17z"/>
<path d="M3540 8416 c0 -28 12 -46 31 -46 23 0 24 9 3 38 -17 25 -34 29 -34 8z"/>
<path d="M4706 8901 c-3 -5 1 -26 10 -47 12 -28 14 -54 10 -92 -7 -59 5 -91
51 -133 45 -42 87 -59 148 -59 70 0 155 41 155 74 -1 14 -271 216 -327 245
-23 11 -44 17 -47 12z m183 -182 c28 -29 51 -56 51 -60 0 -5 -12 -9 -27 -9
-55 0 -131 67 -117 104 11 29 42 17 93 -35z"/>
<path d="M4905 8889 c-10 -15 15 -49 35 -49 24 0 35 17 21 34 -15 18 -49 27
-56 15z"/>
<path d="M4495 8241 c-7 -23 9 -121 25 -151 12 -22 35 -27 43 -7 7 19 -28 146
-45 164 -15 14 -17 13 -23 -6z"/>
<path d="M4592 6598 c6 -19 162 -129 167 -117 5 15 -26 45 -92 90 -62 41 -81
48 -75 27z"/>
<path d="M6202 6818 c-7 -7 -12 -26 -12 -42 0 -23 9 -38 35 -59 20 -16 50 -58
71 -99 55 -110 107 -148 135 -97 34 64 -46 215 -150 281 -50 31 -61 34 -79 16z"/>
<path d="M5947 6738 c-2 -9 -24 -13 -62 -13 -38 0 -60 -4 -62 -13 -7 -20 59
-41 149 -48 70 -6 86 -4 97 9 20 25 -35 77 -82 77 -20 0 -37 -6 -40 -12z"/>
<path d="M6110 6689 c0 -19 5 -40 12 -47 15 -15 90 -16 106 0 17 17 -4 38 -41
38 -18 0 -40 9 -54 22 l-23 21 0 -34z"/>
<path d="M6096 6550 c6 -33 3 -45 -15 -63 -22 -25 -40 -87 -24 -87 6 0 18 9
28 20 21 23 32 24 71 10 l27 -11 -22 -22 c-28 -30 -27 -53 4 -73 20 -13 31
-14 56 -5 42 14 58 38 59 83 0 44 -27 68 -76 68 -52 0 -64 9 -64 47 0 41 -15
73 -35 73 -12 0 -14 -9 -9 -40z"/>
<path d="M5863 5643 c15 -2 37 -2 50 0 12 2 0 4 -28 4 -27 0 -38 -2 -22 -4z"/>
<path d="M6073 5643 c15 -2 37 -2 50 0 12 2 0 4 -28 4 -27 0 -38 -2 -22 -4z"/>
<path d="M5958 5223 c12 -2 30 -2 40 0 9 3 -1 5 -23 4 -22 0 -30 -2 -17 -4z"/>
<path d="M3710 5819 c0 -38 100 -172 117 -156 11 12 -27 93 -63 135 -40 47
-54 52 -54 21z"/>
<path d="M3876 4753 c-50 -75 -94 -223 -66 -223 38 0 134 200 117 244 -10 25
-25 19 -51 -21z"/>
<path d="M3850 4448 c-36 -64 -54 -114 -46 -133 11 -29 34 -14 55 36 22 49 40
149 28 149 -4 0 -20 -24 -37 -52z"/>
<path d="M3935 4425 c-39 -60 -85 -157 -85 -181 0 -20 27 -29 44 -15 8 6 32
56 55 111 60 145 54 186 -14 85z"/>
<path d="M6176 5101 c-18 -65 -40 -224 -33 -244 4 -14 53 183 63 256 9 67 -10
60 -30 -12z"/>
<path d="M6298 4735 c-15 -59 -22 -215 -10 -215 16 0 23 54 20 155 -2 63 -5
81 -10 60z"/>
<path d="M6210 4626 c0 -14 5 -28 10 -31 6 -4 10 7 10 24 0 17 -4 31 -10 31
-5 0 -10 -11 -10 -24z"/>
<path d="M6290 4441 c0 -17 5 -31 10 -31 6 0 10 11 10 24 0 14 -4 28 -10 31
-6 4 -10 -7 -10 -24z"/>
<path d="M2019 4831 c-17 -14 -21 -23 -13 -31 8 -8 17 -6 35 9 17 14 21 23 13
31 -8 8 -17 6 -35 -9z"/>
<path d="M1450 4171 c-417 -126 -514 -148 -702 -160 -124 -9 -168 -24 -168
-60 0 -43 21 -45 193 -16 317 53 442 86 600 157 59 26 96 38 112 34 16 -4 32
1 53 19 20 17 42 25 67 25 25 0 35 4 33 13 -8 22 -90 17 -188 -12z"/>
<path d="M605 3680 c-9 -15 13 -40 35 -40 22 0 44 25 35 40 -3 5 -19 10 -35
10 -16 0 -32 -5 -35 -10z"/>
<path d="M450 3672 c0 -11 50 -57 77 -71 31 -16 43 -14 43 9 0 12 -16 28 -43
45 -44 25 -77 32 -77 17z"/>
<path d="M710 3641 c0 -21 17 -31 38 -23 10 3 9 9 -4 23 -22 24 -34 24 -34 0z"/>
<path d="M7087 4074 c-4 -4 -4 -37 -1 -73 6 -59 3 -75 -24 -141 -17 -41 -34
-88 -38 -105 -3 -16 -22 -63 -42 -104 -30 -61 -36 -84 -35 -136 1 -113 18
-107 116 40 111 168 123 213 93 367 -24 124 -47 174 -69 152z"/>
<path d="M4800 4152 c0 -5 9 -17 20 -27 17 -16 20 -16 26 -2 3 9 3 21 -1 27
-7 12 -45 14 -45 2z"/>
<path d="M4560 4005 c0 -18 24 -30 40 -20 8 5 8 11 -1 21 -15 19 -39 18 -39
-1z"/>
<path d="M4695 3960 c-22 -25 -36 -107 -27 -162 5 -28 16 -47 35 -62 l28 -21
45 48 c61 64 58 91 -8 95 -45 3 -48 5 -48 30 0 15 9 38 20 52 11 14 20 28 20
33 0 15 -48 6 -65 -13z"/>
<path d="M4952 3918 c-7 -7 -12 -18 -12 -25 0 -18 29 -16 37 3 8 21 -10 37
-25 22z"/>
<path d="M4510 3878 c0 -32 26 -56 43 -39 9 9 5 18 -16 38 l-27 28 0 -27z"/>
<path d="M2970 3888 c0 -84 41 -261 84 -359 93 -216 233 -375 312 -355 42 11
36 22 -104 216 -104 144 -242 432 -254 530 -2 14 -11 26 -20 28 -16 3 -18 -5
-18 -60z"/>
<path d="M3190 3660 c30 -42 185 -164 256 -202 60 -31 61 -32 97 -15 19 9 42
17 50 17 9 0 18 4 21 9 9 14 -26 38 -94 64 -36 13 -125 54 -197 91 -73 36
-138 66 -144 66 -5 0 -1 -13 11 -30z"/>
<path d="M2832 3658 c-18 -18 -14 -109 7 -177 28 -91 89 -186 107 -168 13 13
-75 339 -95 351 -4 3 -13 0 -19 -6z"/>
<path d="M7714 2918 c-66 -68 -84 -96 -84 -130 0 -68 49 -31 116 88 33 59 43
94 26 94 -4 0 -30 -24 -58 -52z"/>
<path d="M1646 3161 c-22 -41 -20 -67 6 -85 34 -24 50 -4 46 58 -4 62 -28 75
-52 27z"/>
<path d="M4250 2974 c-114 -15 -211 -37 -265 -60 l-40 -17 60 -14 c92 -22 196
-11 254 27 54 35 95 69 90 73 -2 2 -47 -2 -99 -9z"/>
<path d="M3224 2569 c-17 -5 -37 -16 -44 -24 -10 -12 -8 -16 16 -25 48 -18
124 6 124 40 0 16 -7 20 -32 19 -18 0 -47 -5 -64 -10z"/>
<path d="M3185 2153 c-29 -78 -51 -347 -24 -300 17 30 49 197 49 260 0 56 -11
74 -25 40z"/>
<path d="M4506 2394 c-22 -21 -20 -57 3 -78 17 -16 20 -16 35 -1 18 19 21 48
6 76 -13 23 -24 24 -44 3z"/>
<path d="M4486 2174 c-11 -28 -6 -81 7 -93 21 -17 50 10 50 47 0 50 -42 84
-57 46z"/>
<path d="M4489 1936 c-14 -30 -4 -76 16 -76 18 0 42 36 47 70 2 21 -2 26 -24
28 -22 3 -30 -2 -39 -22z"/>
<path d="M4473 1768 c-18 -23 -23 -48 -16 -79 5 -28 27 -48 39 -37 8 9 32 113
28 120 -8 12 -41 9 -51 -4z"/>
<path d="M4404 1532 c-32 -51 -20 -121 18 -107 21 8 40 56 36 91 -4 35 -37 44
-54 16z"/>
<path d="M3876 1895 c-74 -117 -90 -138 -107 -142 -12 -3 -19 -14 -19 -29 0
-32 10 -30 62 9 56 43 90 104 86 154 l-3 38 -19 -30z"/>
<path d="M6540 3251 c-7 -14 -7 -22 1 -27 14 -8 43 21 35 35 -11 17 -24 13
-36 -8z"/>
<path d="M6200 2855 c-10 -13 -9 -19 6 -36 l18 -20 8 20 c8 22 1 51 -12 51 -4
0 -13 -7 -20 -15z"/>
<path d="M6110 2751 c0 -27 19 -36 37 -18 18 18 9 37 -18 37 -12 0 -19 -7 -19
-19z"/>
<path d="M6476 2105 c-8 -22 1 -35 25 -35 15 0 20 6 17 22 -4 27 -33 36 -42
13z"/>
<path d="M8971 1804 c0 -11 3 -14 6 -6 3 7 2 16 -1 19 -3 4 -6 -2 -5 -13z"/>
</g>
</svg>
