<?xml version="1.0" standalone="no"?>
<!DOCTYPE svg PUBLIC "-//W3C//DTD SVG 20010904//EN"
 "http://www.w3.org/TR/2001/REC-SVG-20010904/DTD/svg10.dtd">
<svg version="1.0" xmlns="http://www.w3.org/2000/svg"
 width="1280.000000pt" height="1760.000000pt" viewBox="0 0 1280.000000 1760.000000"
 preserveAspectRatio="xMidYMid meet">
<metadata>
Created by potrace 1.16, written by Peter Selinger 2001-2019
</metadata>
<g transform="translate(0.000000,1760.000000) scale(0.100000,-0.100000)"
fill="#000970" stroke="none">
<path d="M6040 16703 c0 -43 3 -102 6 -130 l7 -53 112 0 112 0 6 -167 c4 -91
7 -224 7 -295 l0 -128 150 0 150 0 1 103 c1 56 4 188 8 292 l6 190 116 -2 117
-3 7 126 c4 69 4 128 0 132 -4 4 -186 9 -406 10 l-399 4 0 -79z"/>
<path d="M5364 16720 c-158 -41 -295 -145 -356 -268 -31 -62 -33 -73 -33 -172
0 -93 3 -111 27 -163 38 -81 126 -169 210 -211 221 -111 489 -76 665 88 269
250 166 637 -194 731 -79 21 -231 18 -319 -5z m243 -271 c110 -53 132 -172 50
-266 -82 -93 -224 -98 -315 -10 -116 112 -15 297 162 297 40 0 74 -7 103 -21z"/>
<path d="M7255 16724 c-224 -47 -362 -169 -394 -351 -41 -222 135 -461 389
-528 70 -19 239 -19 309 0 233 62 381 262 351 475 -26 183 -202 350 -415 395
-65 14 -194 18 -240 9z m224 -290 c75 -38 114 -99 108 -171 -13 -168 -245
-226 -364 -90 -139 159 58 359 256 261z"/>
<path d="M8130 16545 c0 -2 -49 -184 -110 -403 -60 -219 -110 -403 -110 -408
0 -8 232 -84 269 -88 11 -1 41 79 109 287 104 320 89 297 170 260 50 -23 58
-48 28 -78 -20 -20 -31 -24 -53 -18 -63 16 -64 15 -100 -92 l-34 -100 21 -155
c12 -85 24 -158 28 -161 9 -7 268 -109 278 -109 4 0 3 69 -1 153 -13 253 -17
226 38 247 110 42 167 123 167 235 0 71 -23 126 -75 183 -73 82 -149 117 -433
203 -154 46 -192 55 -192 44z"/>
<path d="M4482 16524 c-29 -7 -66 -21 -83 -30 -46 -23 -115 -90 -129 -124 -14
-35 -14 -35 -70 -15 -136 48 -326 -22 -405 -149 -27 -44 -30 -58 -29 -125 0
-76 1 -78 133 -366 73 -159 134 -291 136 -294 7 -6 275 112 275 122 0 5 -45
123 -100 263 -55 139 -101 263 -103 275 -2 25 27 49 43 33 5 -5 56 -131 112
-279 56 -149 103 -272 104 -274 3 -3 271 87 282 94 1 1 -39 129 -89 284 -75
230 -89 284 -79 296 21 25 38 17 54 -27 9 -24 50 -153 91 -287 41 -135 76
-246 78 -247 2 -2 280 76 284 80 6 5 -160 622 -176 654 -26 51 -91 108 -138
121 -51 15 -127 13 -191 -5z"/>
<path d="M9021 16188 c-10 -24 -87 -197 -170 -386 -83 -189 -151 -346 -151
-350 0 -6 208 -109 261 -130 7 -3 389 747 389 764 0 6 -250 127 -288 138 -19
6 -25 2 -41 -36z"/>
<path d="M9553 15866 c-134 -44 -203 -161 -190 -325 7 -88 -3 -111 -48 -111
-26 0 -45 9 -74 35 l-39 35 -25 -42 c-13 -24 -41 -76 -62 -117 l-37 -73 34
-35 c18 -19 67 -51 107 -71 71 -35 81 -37 170 -37 79 0 105 4 146 23 112 52
157 131 159 284 1 63 7 102 15 112 21 25 75 20 102 -9 13 -13 27 -25 32 -25 4
0 39 48 77 108 l70 107 -41 38 c-23 20 -75 54 -115 73 -61 31 -85 37 -156 40
-53 3 -98 -1 -125 -10z"/>
<path d="M2992 15846 c-165 -62 -304 -200 -359 -359 -34 -96 -30 -213 9 -299
72 -156 227 -248 416 -248 150 0 262 43 366 140 141 133 168 318 62 438 -42
48 -141 95 -170 80 -53 -27 -236 -140 -241 -149 -7 -10 95 -178 108 -179 4 0
25 12 47 26 40 27 72 25 49 -3 -18 -21 -99 -60 -140 -68 -83 -15 -175 46 -198
132 -29 107 84 242 222 268 20 4 37 9 37 12 0 10 -134 233 -140 232 -3 0 -33
-11 -68 -23z"/>
<path d="M9949 15584 c-39 -58 -69 -107 -67 -108 2 -2 45 -31 96 -65 50 -35
92 -68 92 -73 0 -5 -74 -112 -164 -237 -91 -125 -166 -232 -168 -238 -2 -8
180 -156 229 -186 9 -5 73 68 194 220 99 125 184 229 187 230 4 2 48 -31 97
-72 50 -41 92 -75 95 -74 5 0 111 122 151 173 l20 25 -127 103 c-201 163 -533
408 -554 408 -5 0 -42 -48 -81 -106z"/>
<path d="M2274 15276 c-28 -7 -74 -26 -102 -42 -57 -32 -214 -169 -337 -293
l-80 -81 115 -118 c64 -64 199 -202 302 -307 l187 -189 108 104 c59 58 109
110 111 116 2 6 -85 108 -191 227 -107 118 -198 220 -201 225 -8 14 72 72 90
65 21 -8 17 -44 -7 -70 l-22 -22 45 -53 c25 -29 61 -71 80 -93 l35 -39 44 37
c43 38 78 45 87 19 2 -8 -17 -33 -43 -58 l-47 -44 77 -85 c43 -47 81 -85 86
-85 18 0 156 146 174 185 11 23 21 70 23 112 4 64 1 77 -24 124 -48 87 -132
128 -226 111 l-45 -9 9 41 c17 76 -26 177 -90 210 -42 21 -102 26 -158 12z"/>
<path d="M10498 14790 c-153 -170 -279 -312 -280 -317 -1 -4 48 -57 110 -117
l113 -110 100 100 c55 54 191 193 302 308 l202 209 -123 118 c-68 66 -129 119
-135 118 -7 0 -137 -139 -289 -309z"/>
<path d="M5792 14697 c-6 -7 -18 -49 -27 -92 -15 -71 -81 -257 -104 -293 -5
-9 -10 26 -13 87 -4 87 -9 109 -37 166 -32 65 -60 91 -86 81 -11 -4 -14 -30
-13 -118 1 -65 -9 -191 -22 -298 l-23 -185 52 -175 c29 -96 55 -198 58 -226 7
-62 17 -53 -197 -170 -228 -126 -619 -361 -745 -449 -99 -70 -183 -137 -315
-253 l-45 -40 216 -213 c132 -131 221 -227 229 -247 12 -31 10 -44 -24 -150
-63 -200 -60 -268 24 -597 60 -234 94 -344 275 -900 80 -242 151 -469 160
-505 24 -106 20 -352 -10 -545 -29 -185 -41 -431 -28 -587 7 -95 7 -107 -7
-104 -41 12 -405 38 -444 32 -93 -14 -94 -65 -3 -90 28 -9 115 -27 191 -41
141 -27 206 -49 214 -73 3 -10 -3 -11 -25 -5 -45 13 -253 9 -313 -6 -118 -29
-136 -57 -127 -197 8 -136 58 -188 120 -126 l30 30 17 -21 c16 -19 30 -21 183
-26 108 -4 170 -10 178 -18 6 -6 15 -51 20 -98 4 -48 10 -89 13 -92 2 -3 88
-9 189 -14 101 -4 206 -13 233 -19 53 -12 100 -37 89 -48 -4 -4 -100 -9 -213
-12 l-207 -5 75 -14 c41 -7 104 -19 140 -25 l65 -12 -75 -13 c-41 -7 -83 -17
-92 -23 -28 -14 -21 -52 17 -102 19 -25 51 -67 70 -92 39 -50 40 -66 3 -40
-26 18 -54 21 -63 6 -4 -6 12 -34 34 -63 22 -29 61 -78 86 -111 25 -32 44 -61
42 -63 -3 -2 -49 21 -103 51 -55 30 -135 67 -179 82 -99 32 -155 60 -155 77 0
6 30 50 65 97 36 47 65 94 65 106 0 44 -69 84 -145 84 -35 0 -54 -8 -106 -47
-133 -97 -400 -378 -463 -486 -50 -85 -69 -184 -69 -367 -1 -253 28 -333 218
-620 138 -208 143 -230 37 -176 -102 52 -203 68 -252 42 -14 -8 -31 -11 -40
-6 -8 4 -53 11 -100 15 -53 4 -119 18 -175 37 -85 29 -96 30 -195 25 -117 -7
-182 -22 -315 -74 -141 -54 -401 -185 -502 -251 -50 -34 -127 -80 -170 -103
-130 -70 -155 -89 -150 -117 6 -31 -36 -62 -263 -191 -220 -125 -429 -229
-551 -275 -137 -51 -300 -124 -322 -144 -45 -40 -77 -95 -77 -134 0 -56 21
-89 92 -146 93 -74 246 -234 263 -275 8 -20 15 -64 15 -97 0 -80 17 -116 78
-171 121 -109 386 -199 585 -199 l70 0 -6 -147 c-3 -82 -11 -201 -18 -265 -9
-88 -9 -128 0 -162 6 -25 11 -76 11 -114 0 -47 6 -84 19 -113 11 -24 24 -89
31 -144 15 -140 22 -144 107 -63 37 36 169 152 293 257 249 212 256 216 380
209 101 -6 123 -19 427 -247 390 -292 513 -395 513 -430 0 -53 -60 -17 -401
244 -254 194 -339 268 -339 297 0 29 -60 84 -105 97 -22 6 -68 11 -102 11 -73
0 -61 8 -419 -286 -121 -99 -247 -201 -278 -224 -66 -50 -76 -69 -76 -148 0
-89 1 -89 121 -62 99 22 103 22 116 5 7 -11 13 -45 13 -81 0 -85 21 -199 91
-489 58 -242 60 -251 94 -280 19 -16 42 -48 51 -70 32 -80 47 -105 61 -105 38
0 61 171 27 204 -8 9 -31 16 -51 16 l-35 0 7 104 7 103 -31 6 c-27 6 -31 10
-31 39 1 18 7 51 15 73 21 56 19 75 -6 75 -11 0 -29 -5 -41 -11 -11 -6 -22 -8
-25 -5 -3 3 4 40 16 84 27 100 27 102 -9 102 -19 0 -33 6 -37 16 -3 9 7 58 22
110 l28 94 -24 45 -24 45 32 63 c34 65 87 136 96 127 3 -3 26 -104 51 -225 91
-431 203 -755 261 -755 22 0 19 19 -19 101 -66 143 -83 281 -51 417 16 66 43
128 52 118 3 -3 -3 -47 -12 -98 -10 -51 -17 -122 -17 -158 -1 -65 18 -157 29
-146 3 3 12 53 19 110 21 160 29 158 30 -7 1 -208 16 -309 41 -283 4 4 10 78
13 164 5 136 7 153 18 129 6 -16 12 -30 12 -32 0 -17 43 -115 51 -115 5 0 15
15 22 33 17 40 47 68 47 43 0 -50 -101 -237 -175 -327 -45 -53 -46 -74 -3 -65
18 3 42 13 54 21 57 37 129 184 190 385 41 134 144 537 144 562 0 28 11 21 72
-49 77 -87 85 -116 69 -256 -14 -133 -51 -311 -79 -387 -51 -137 -138 -322
-187 -395 -100 -150 -252 -295 -309 -295 -32 0 -61 42 -112 163 -40 96 -61
110 -89 57 -35 -68 -1 -150 110 -268 126 -134 214 -166 455 -166 272 1 429 55
535 184 47 58 145 241 190 355 35 90 62 142 77 151 7 5 37 11 67 15 64 9 90
31 149 129 45 74 35 71 177 42 168 -35 551 -62 905 -65 l185 -2 115 49 c168
71 403 150 512 170 112 21 267 19 312 -4 64 -33 73 -66 111 -420 18 -169 68
-426 94 -485 10 -22 43 -68 74 -100 l56 -60 0 150 c-1 193 -7 240 -34 240 -11
0 -21 -7 -22 -15 -8 -62 -15 -90 -23 -90 -6 0 -11 100 -12 242 -3 218 -5 243
-20 246 -10 2 -23 -8 -32 -25 l-15 -28 -1 35 c-4 166 -19 365 -27 367 -39 13
-40 22 -25 187 11 124 12 167 3 192 -42 115 -41 599 1 625 28 18 31 -4 68
-476 31 -403 48 -553 81 -730 32 -176 86 -379 114 -434 22 -44 30 -51 54 -51
60 0 104 89 146 293 56 279 58 313 59 1112 1 407 -3 838 -8 958 l-8 217 41 0
c46 0 61 18 61 74 0 34 14 55 28 42 3 -4 -1 -44 -11 -90 -22 -106 -22 -105 9
-116 22 -9 25 -14 19 -38 -3 -15 -9 -81 -12 -148 l-5 -121 27 -22 c69 -53 102
-43 214 70 119 119 171 197 171 253 0 54 -19 81 -51 73 -13 -4 -71 -42 -129
-86 -58 -43 -108 -77 -112 -75 -15 10 -9 174 8 210 33 69 202 203 293 231 66
21 170 11 225 -21 42 -25 156 -146 201 -215 13 -20 31 -61 39 -92 18 -70 33
-309 19 -309 -5 0 -33 32 -62 71 -62 82 -91 101 -120 75 -16 -15 -41 -91 -41
-126 0 -5 18 -29 40 -55 83 -95 173 -295 191 -420 16 -117 7 -121 -87 -36 -60
56 -84 71 -104 69 -23 -3 -25 -8 -28 -56 -3 -57 10 -87 117 -262 28 -46 58
-107 66 -135 15 -52 38 -216 31 -222 -2 -2 -27 27 -57 64 -77 100 -100 122
-116 116 -24 -9 -43 -60 -43 -116 0 -45 9 -72 56 -168 76 -153 82 -173 95
-301 12 -119 6 -202 -14 -195 -35 11 -80 143 -102 299 -3 26 -15 58 -26 72
-21 27 -59 35 -59 14 0 -7 -11 14 -25 47 -27 67 -66 108 -99 103 -34 -5 -30
-34 13 -81 23 -24 41 -52 41 -62 0 -34 -34 -75 -72 -87 -21 -6 -38 -15 -38
-19 0 -4 -41 -52 -92 -106 -50 -54 -104 -118 -120 -143 -27 -43 -200 -251
-204 -247 -6 6 37 231 50 259 8 18 51 75 97 126 142 159 188 214 204 248 16
35 20 130 5 154 -13 22 -38 5 -185 -129 -71 -65 -131 -115 -133 -111 -6 16 38
190 58 229 11 23 60 85 109 140 151 169 184 231 157 295 -8 20 -21 36 -28 36
-25 0 -88 -46 -182 -133 l-95 -87 6 57 c10 118 21 139 193 373 104 142 122
209 71 271 l-19 23 -48 -39 c-27 -22 -81 -70 -120 -108 l-72 -67 -7 110 c-4
61 -11 113 -16 115 -13 9 -36 -34 -55 -100 -14 -50 -18 -139 -24 -555 -11
-698 -29 -907 -111 -1295 -46 -218 -68 -308 -143 -590 -13 -49 -28 -115 -33
-145 l-9 -55 -22 65 c-12 36 -29 101 -37 145 -16 75 -36 117 -51 102 -4 -4 -9
-29 -12 -57 l-5 -51 -21 20 c-31 29 -36 27 -36 -17 0 -61 57 -208 99 -256 25
-29 84 -55 161 -71 105 -22 341 -38 460 -31 88 6 115 12 167 37 123 59 224
210 237 354 5 59 18 102 51 180 68 159 102 291 124 481 6 51 22 126 36 168 20
62 27 109 35 263 13 257 19 327 36 406 19 90 18 267 -1 341 -14 54 -14 61 7
129 19 62 22 93 21 217 -1 80 -8 179 -16 220 -10 55 -11 82 -3 100 6 14 13
129 16 260 l5 235 65 12 c36 7 99 12 141 13 68 0 80 -3 122 -31 78 -51 203
-194 303 -345 111 -167 138 -197 209 -229 57 -25 68 -41 131 -199 35 -88 77
-129 185 -182 135 -66 184 -79 240 -65 46 12 50 12 85 -16 l38 -28 210 0 c188
1 219 3 282 23 91 28 134 65 134 116 0 59 -26 105 -103 181 -84 83 -186 139
-326 181 -137 41 -191 63 -262 104 -75 44 -119 92 -168 178 -18 33 -88 121
-155 194 -147 162 -197 225 -270 347 -32 52 -79 127 -107 167 -27 40 -49 82
-49 93 0 11 25 122 56 246 31 124 54 231 51 238 -2 7 -47 34 -98 61 -145 76
-212 124 -364 261 -188 169 -280 228 -330 209 -16 -6 -15 -9 6 -26 l24 -20
-44 5 c-31 4 -64 20 -113 54 -38 26 -82 56 -98 66 -29 18 -30 18 -30 0 0 -10
38 -65 84 -123 46 -57 92 -117 101 -132 16 -28 16 -28 -12 -28 -32 0 -122 47
-135 70 -9 17 -177 424 -214 517 l-24 62 48 38 c160 128 254 287 298 503 33
165 1 360 -82 495 -128 208 -134 219 -122 226 7 4 112 10 233 14 284 8 398 20
453 47 47 22 104 89 219 255 88 126 96 132 194 149 46 8 118 24 159 35 62 17
91 20 170 15 113 -8 149 2 242 65 126 86 133 112 64 254 -48 96 -98 165 -122
165 -18 0 -18 -25 0 -120 25 -129 -1 -112 -49 33 -15 42 -29 77 -32 77 -3 0
-3 -33 0 -72 8 -90 -2 -111 -31 -73 -25 32 -62 126 -62 158 0 30 18 47 50 47
34 0 53 14 48 36 -2 12 -13 20 -29 22 -43 5 -276 -104 -368 -172 -19 -14 -45
-26 -57 -26 -12 0 -36 -11 -51 -24 -16 -14 -52 -30 -79 -37 -27 -7 -61 -18
-76 -26 -35 -17 -67 -80 -75 -144 l-6 -50 -41 39 c-57 55 -75 62 -179 72 -75
7 -123 21 -257 70 -91 34 -203 79 -249 101 -46 21 -92 39 -103 39 -28 0 -88
-33 -138 -78 -68 -60 -120 -92 -148 -92 -14 0 -70 15 -126 34 -143 48 -148 49
-206 26 -96 -38 -141 -22 -219 76 -58 74 -206 327 -241 413 -71 176 -83 202
-125 274 -57 96 -132 177 -231 249 -101 72 -169 108 -205 108 -59 0 -34 -32
88 -113 77 -52 147 -118 190 -182 14 -21 57 -107 95 -189 100 -218 317 -640
348 -677 25 -30 28 -32 59 -21 30 11 32 10 20 -5 -8 -9 -37 -35 -65 -57 -28
-23 -82 -68 -119 -101 -63 -55 -69 -58 -79 -41 -40 69 -160 245 -223 329 -101
133 -119 175 -137 329 -9 69 -16 129 -16 132 0 3 -13 12 -28 20 -43 22 -91
124 -166 351 -37 110 -80 241 -96 290 -40 121 -40 182 0 228 16 19 62 51 102
72 40 21 131 74 203 117 120 73 136 87 211 176 44 53 137 151 205 217 109 106
157 143 309 242 96 62 260 235 260 274 0 35 -30 32 -126 -15 -53 -25 -104 -46
-114 -46 -16 0 -18 13 -22 138 -3 96 -8 144 -18 159 -15 24 -58 43 -95 43 -13
0 -46 16 -75 36 -29 20 -68 42 -86 50 -26 11 -40 28 -60 72 -16 33 -53 82 -89
119 -71 71 -102 80 -235 69 l-79 -7 -6 38 c-26 161 -42 213 -65 213 -11 0 -28
-54 -36 -117 -4 -29 -12 -60 -18 -68 -13 -18 -115 -37 -159 -28 -44 8 -69 31
-61 57 3 12 29 67 57 123 49 101 50 103 38 145 -31 106 -82 148 -176 148 -72
0 -101 -16 -110 -63 -10 -44 -31 -65 -95 -94 -30 -13 -76 -38 -103 -55 -46
-30 -48 -30 -68 -12 -35 32 -41 8 -37 -152 3 -130 6 -154 26 -191 40 -76 62
-66 62 28 0 67 22 146 51 183 11 15 38 36 60 46 44 23 49 37 17 49 -22 8 -22
8 4 25 15 10 51 26 80 37 l53 19 -30 -24 c-75 -62 -76 -64 -73 -114 4 -60 20
-64 79 -17 24 19 47 35 51 35 4 0 -2 -21 -13 -46 -11 -25 -23 -70 -26 -101
l-6 -55 -103 7 -104 7 0 -63 c0 -120 56 -166 185 -156 83 7 115 1 115 -23 0
-53 -69 -54 -205 -5 -54 19 -104 35 -111 35 -28 0 -13 -30 36 -72 55 -47 64
-68 26 -61 -14 3 -79 -9 -146 -26 -81 -21 -126 -28 -137 -22 -9 5 -28 26 -43
47 -18 28 -38 43 -69 53 l-44 14 27 14 c14 8 68 17 119 21 l92 7 -1 35 c-3 56
-34 393 -40 418 -6 28 -21 29 -29 1 -4 -11 -9 -18 -12 -16 -6 7 -35 209 -30
214 2 2 15 -6 30 -17 29 -23 47 -26 47 -6 0 23 -42 68 -76 82 -45 19 -168 19
-184 -1 -17 -20 -9 -49 15 -53 59 -11 90 -89 75 -187 -5 -33 -14 -97 -21 -143
l-12 -83 40 -79 c44 -85 41 -97 -18 -80 -74 22 -119 77 -119 148 0 24 9 80 21
124 24 97 22 132 -7 136 -18 3 -30 -14 -77 -105 -70 -137 -107 -241 -114 -320
-5 -57 -3 -69 26 -128 31 -62 32 -69 22 -116 -14 -63 -14 -153 -1 -201 7 -23
34 -62 70 -99 l58 -62 -1 -72 c-2 -71 -1 -74 45 -142 26 -38 78 -99 116 -135
66 -64 69 -66 142 -77 104 -17 110 -20 110 -43 0 -25 -116 -140 -160 -158 -39
-16 -37 -17 -190 165 -64 77 -152 178 -195 225 -156 169 -161 179 -295 555
-89 249 -139 374 -200 499 -27 56 -50 114 -50 128 0 15 14 64 31 110 17 46 44
121 59 168 22 68 33 88 55 98 39 20 54 50 176 357 122 305 208 504 293 673 30
60 66 136 80 170 13 34 45 86 70 114 74 85 113 170 130 282 10 67 23 111 42
144 72 125 86 156 87 189 2 57 -52 82 -101 48 -12 -9 -49 -55 -83 -103 -59
-84 -84 -112 -101 -112 -4 0 -15 14 -24 32 -14 26 -14 37 -4 72 19 65 61 116
177 216 180 157 209 195 164 219 -21 12 -68 1 -103 -23 -32 -22 -38 -20 -38
13 0 16 -7 34 -15 41 -9 7 -15 29 -15 51 0 24 -5 39 -12 39 -7 0 -44 -34 -83
-75 -38 -41 -73 -75 -76 -75 -3 0 -9 41 -11 90 -4 68 -10 96 -23 110 -21 23
-57 26 -73 7z m-141 -674 c48 -119 63 -172 99 -350 17 -81 39 -160 50 -178 32
-52 23 -62 -19 -21 -57 55 -73 95 -140 336 -59 211 -81 315 -80 375 0 28 1 27
26 -20 14 -27 43 -91 64 -142z m-61 -581 c0 -17 -46 -51 -116 -85 -125 -63
-386 -179 -391 -174 -8 9 154 101 372 211 108 55 135 64 135 48z m211 -69
c-28 -69 -290 -593 -313 -625 -11 -16 -24 -28 -29 -28 -20 0 -7 44 30 106 21
35 42 81 46 102 10 56 77 188 134 266 28 38 51 74 51 81 0 6 9 20 20 30 25 23
25 37 0 60 -11 10 -19 23 -17 29 4 11 39 23 74 25 l23 1 -19 -47z m-848 -266
c-9 -13 -60 -58 -113 -101 -52 -42 -138 -115 -190 -161 -52 -47 -118 -101
-146 -121 -44 -30 -55 -34 -73 -25 -12 7 -21 16 -21 20 0 18 133 131 254 217
106 75 292 194 303 194 2 0 -4 -11 -14 -23z m177 -83 c0 -3 -9 -19 -21 -35
-13 -19 -19 -39 -16 -55 5 -26 -1 -34 -110 -163 -57 -66 -61 -85 -42 -156 13
-46 23 -55 64 -55 61 -1 72 -32 15 -45 -57 -12 -29 -65 35 -65 24 0 45 -24 31
-37 -3 -3 -29 3 -58 14 -89 34 -388 175 -388 183 0 4 34 10 75 14 109 10 134
21 155 70 9 22 36 64 59 91 23 28 54 73 68 100 33 65 133 170 133 139z m-100
-672 c72 -34 170 -129 170 -164 0 -27 -52 -214 -89 -322 l-21 -59 84 -216 c46
-119 143 -371 214 -561 155 -409 157 -413 177 -434 23 -22 32 -20 48 10 l14
26 46 -53 c54 -63 323 -394 332 -409 12 -19 -185 -247 -435 -506 -91 -93 -210
-225 -264 -293 -54 -67 -100 -121 -102 -119 -2 2 20 98 48 213 51 209 51 211
52 380 1 147 -2 181 -22 255 -13 47 -115 360 -227 695 -189 564 -283 864 -299
958 -7 36 -6 37 22 37 56 0 58 21 13 104 l-41 74 46 148 c54 174 77 227 112
254 28 23 40 21 122 -18z m1854 -728 c9 -3 16 -14 16 -24 0 -19 -44 -60 -65
-60 -7 0 -32 -13 -56 -30 -24 -16 -47 -30 -51 -30 -13 0 -38 32 -38 50 0 58
127 120 194 94z m342 -50 c29 -8 62 -23 75 -34 l24 -21 -42 6 c-35 6 -43 4
-43 -9 0 -8 13 -22 29 -31 48 -25 61 -43 61 -90 0 -49 -21 -78 -54 -73 -18 3
-21 10 -21 63 0 57 -1 60 -24 60 -14 0 -32 -11 -43 -26 -19 -25 -19 -28 -2
-97 18 -76 14 -97 -13 -70 -23 24 -28 106 -9 171 21 73 21 72 -20 47 -44 -28
-53 -20 -61 55 -8 81 7 87 143 49z m279 -258 c40 -17 64 -50 72 -100 6 -41 4
-42 -39 -20 -23 12 -46 15 -80 11 -45 -6 -49 -4 -58 19 -14 35 -12 78 2 92 16
16 61 15 103 -2z m-1127 -169 c23 -24 42 -102 42 -168 0 -49 15 -50 37 -3 15
30 18 32 24 17 4 -10 8 -37 8 -59 2 -106 71 -243 136 -270 19 -8 105 -25 192
-39 87 -14 168 -29 181 -35 31 -14 28 -55 -8 -109 -17 -24 -30 -50 -30 -57 0
-25 21 -25 55 0 18 14 36 26 38 26 3 0 7 -12 10 -28 3 -15 28 -62 56 -105 l51
-77 -68 -44 c-116 -74 -266 -126 -363 -126 -63 0 -100 24 -205 132 l-97 100 7
136 c3 76 9 181 13 235 l6 97 -51 0 c-102 0 -155 -20 -261 -97 -22 -16 -24
-16 -37 1 -11 16 -22 18 -65 13 -50 -6 -53 -5 -90 31 -39 40 -69 116 -51 134
6 6 33 -6 72 -31 72 -47 86 -49 140 -21 54 28 51 7 -5 -32 -28 -20 -42 -35
-36 -41 15 -15 62 21 124 93 31 36 69 74 86 85 16 11 33 30 36 42 3 13 16 30
30 39 46 30 31 41 -67 48 -107 8 -208 25 -208 36 0 4 20 13 44 19 24 6 49 18
57 27 22 27 90 54 135 54 30 0 46 -6 62 -23z m917 -107 c23 -23 48 -40 62 -40
26 0 63 -36 63 -61 0 -35 -40 -68 -107 -89 -78 -24 -109 -25 -117 -5 -14 38
29 235 51 235 5 0 27 -18 48 -40z m-903 -737 c20 -43 59 -143 88 -223 29 -80
66 -172 82 -204 16 -33 35 -91 42 -130 11 -63 15 -71 33 -69 19 2 21 -4 28
-85 4 -48 18 -151 31 -229 13 -78 24 -156 24 -172 0 -16 -23 -76 -52 -133 -47
-94 -62 -114 -172 -224 -112 -112 -329 -295 -384 -323 -21 -11 -23 -11 -18 6
3 10 21 92 41 183 20 91 44 197 55 236 20 70 20 71 0 150 -34 137 -77 676 -66
831 8 118 32 194 91 288 53 86 122 175 134 175 4 0 24 -35 43 -77z m-640 -645
c-41 -60 -46 -82 -27 -117 20 -40 58 -58 147 -72 153 -24 186 -44 210 -123 17
-55 17 -429 0 -469 -11 -27 -12 -27 -37 -11 -23 15 -27 15 -60 -6 -40 -25 -44
-18 -15 25 21 31 26 70 11 79 -5 3 -20 -3 -34 -14 -71 -56 -122 -42 -159 42
-56 126 -73 153 -97 156 -23 4 -24 2 -19 -42 5 -43 4 -46 -18 -46 -37 0 -83
-49 -103 -109 -10 -30 -24 -57 -31 -59 -10 -4 -11 17 -5 103 l7 108 -46 -6
c-27 -4 -46 -3 -46 3 0 5 27 70 60 143 33 74 60 142 60 151 0 13 -10 16 -51
16 -72 0 -63 22 40 91 46 32 118 91 159 133 42 41 78 73 80 71 2 -2 -9 -23
-26 -47z m1033 -615 c41 -65 144 -173 165 -173 10 0 23 7 30 15 21 25 30 17
30 -25 0 -50 -35 -126 -67 -147 -21 -14 -28 -14 -79 2 -69 21 -142 14 -203
-20 -24 -14 -45 -25 -48 -25 -3 0 -4 35 -1 78 4 71 10 90 68 210 35 73 66 132
69 132 3 0 19 -21 36 -47z m-1377 -406 c-5 -98 -25 -160 -38 -122 -5 14 -22
23 -56 31 l-49 10 32 17 c34 18 70 63 59 74 -6 6 -430 -39 -556 -59 -109 -18
-109 -18 -108 -88 0 -33 -2 -63 -5 -66 -3 -3 -13 9 -23 27 -22 44 -22 130 0
165 l18 26 23 -22 23 -22 254 32 c287 36 368 51 400 73 13 9 25 16 27 16 2 1
2 -41 -1 -92z m301 43 c82 -38 283 -184 539 -394 68 -56 127 -102 131 -104 5
-2 35 20 67 49 92 81 153 117 238 145 110 34 178 73 266 149 41 36 85 68 98
71 31 8 61 -21 113 -110 23 -39 74 -118 114 -176 40 -58 79 -119 89 -137 34
-67 9 -225 -39 -237 -47 -12 -262 -26 -402 -26 -79 0 -143 -4 -143 -9 0 -14
36 -20 190 -32 80 -6 149 -14 153 -19 14 -13 -23 -39 -81 -57 -39 -12 -91 -18
-167 -18 -98 0 -116 3 -167 27 -97 45 -180 105 -408 294 -142 119 -241 184
-277 184 -17 0 -28 11 -44 45 -25 53 -117 140 -191 180 -45 25 -72 30 -187 41
-156 15 -174 25 -143 78 40 68 163 96 251 56z m4248 -49 c36 -23 49 -52 33
-81 -13 -24 -17 -24 -50 -5 -53 30 -79 20 -155 -57 -87 -89 -220 -255 -385
-482 -163 -221 -143 -211 -440 -210 -235 2 -270 8 -270 48 0 38 26 46 167 53
117 5 131 8 168 33 57 39 186 102 193 95 8 -8 -42 -49 -105 -86 -29 -17 -53
-33 -53 -35 0 -2 17 -4 38 -4 64 0 121 48 310 264 292 334 449 486 501 486 9
0 30 -9 48 -19z m-1922 -205 l11 -39 23 31 c25 35 60 42 82 16 10 -12 10 -24
1 -60 -28 -103 -3 -112 44 -16 l31 63 59 -44 c126 -93 201 -206 230 -349 18
-89 10 -176 -24 -249 l-20 -44 -1 53 c-2 111 -62 151 -110 74 -49 -80 -107
-102 -331 -127 -85 -10 -183 -26 -218 -37 -60 -18 -134 -69 -121 -83 4 -3 33
4 65 15 165 61 250 74 378 60 140 -16 221 -57 326 -164 65 -67 120 -154 150
-239 28 -77 38 -246 20 -330 -17 -86 -80 -201 -160 -297 -40 -47 -79 -100 -88
-117 -9 -18 -19 -33 -23 -33 -8 0 -84 124 -134 218 -32 59 -57 67 -73 25 -6
-16 -23 -79 -36 -142 -14 -63 -33 -122 -42 -132 -30 -33 -138 -18 -272 36
l-43 18 40 18 c61 27 75 63 67 175 -6 79 -5 92 9 98 39 15 260 -2 333 -25 37
-12 51 -37 78 -132 22 -81 47 -86 134 -28 75 50 100 118 80 219 -10 48 -20 65
-60 104 -27 26 -56 58 -66 72 -23 36 -62 34 -116 -7 -43 -33 -59 -56 -75 -111
-5 -20 -17 -32 -36 -37 -15 -4 -127 -11 -248 -15 -121 -4 -217 -10 -214 -13 4
-3 27 -13 53 -22 88 -30 53 -67 -73 -78 -68 -6 -70 -7 -75 -36 l-6 -30 -31 43
c-70 96 -131 304 -119 405 10 92 76 253 101 250 5 -1 13 -15 17 -32 5 -16 28
-50 52 -74 71 -74 214 -108 293 -71 19 10 41 28 50 40 l15 24 240 0 c225 0
240 1 232 18 -4 9 -8 49 -9 87 -1 75 -21 127 -54 145 -11 6 -83 10 -168 9
l-148 -1 83 -17 c45 -9 87 -22 93 -28 18 -18 0 -53 -37 -70 -35 -17 -43 -40
-22 -61 19 -19 0 -27 -80 -30 -105 -5 -141 6 -165 48 -10 19 -29 46 -42 60
-12 14 -30 41 -40 60 -27 54 -52 70 -115 70 -64 0 -93 16 -108 59 -9 25 -7 32
12 50 46 43 254 119 376 136 91 13 103 26 45 45 -53 17 -89 60 -124 148 -43
105 -81 152 -127 152 -19 0 -34 -4 -34 -8 0 -5 21 -28 47 -51 44 -39 47 -44
30 -56 -10 -7 -42 -16 -72 -20 -54 -6 -74 -26 -40 -39 24 -9 17 -26 -10 -26
-36 0 -32 -28 11 -83 35 -45 36 -48 20 -66 -23 -26 -64 -35 -83 -19 -22 18
-33 53 -49 153 -10 70 -18 94 -35 108 -26 21 -39 21 -64 4 -16 -13 -17 -25
-12 -128 3 -63 12 -136 21 -164 20 -63 14 -69 -15 -13 -59 113 -23 407 61 501
l28 32 -2 -75 c-1 -61 2 -75 15 -78 9 -1 58 28 110 65 52 37 128 86 169 108
74 39 75 41 78 82 3 38 1 43 -22 49 -15 3 -54 -3 -95 -15 -78 -24 -95 -26 -85
-10 16 26 150 69 209 66 37 -2 40 -5 50 -41z m-2150 -363 c74 -26 112 -86 62
-98 -56 -15 -206 71 -191 109 7 18 58 14 129 -11z m387 -32 c25 -16 92 -66
147 -110 271 -216 333 -239 616 -227 88 3 193 9 232 12 l73 7 36 -76 c35 -74
35 -77 24 -134 -15 -74 -46 -129 -79 -142 -14 -6 -71 -20 -126 -31 -55 -12
-138 -33 -184 -47 -50 -15 -99 -23 -120 -20 -38 4 -266 68 -341 94 -62 22
-144 108 -210 218 -60 102 -107 165 -121 165 -28 0 38 -178 101 -273 l41 -60
-33 -28 c-38 -33 -122 -83 -156 -94 -23 -7 -23 -6 8 55 36 71 36 109 1 126
l-23 12 25 17 c38 25 41 47 12 100 -14 27 -25 60 -25 74 0 36 -22 65 -65 85
l-36 18 25 23 c14 13 26 27 26 30 0 3 -20 30 -45 61 -49 59 -51 66 -32 82 27
22 101 -40 113 -96 10 -46 14 -53 23 -48 16 10 34 107 29 160 -5 52 -2 76 11
76 4 0 28 -13 53 -29z m-1059 -442 c43 -16 87 -29 97 -29 32 0 166 -98 237
-174 65 -69 122 -159 138 -216 3 -14 -7 -2 -23 25 -36 60 -76 100 -92 90 -36
-22 83 -207 123 -192 12 4 16 -9 22 -59 5 -53 14 -75 49 -126 114 -168 297
-522 340 -658 55 -173 46 -224 -74 -410 -92 -144 -102 -177 -42 -135 27 20 37
47 -105 -284 -129 -302 -152 -345 -195 -367 -50 -26 -133 -14 -215 31 -94 51
-225 151 -303 229 l-64 66 13 37 c22 64 99 189 227 368 131 185 184 266 184
284 0 6 -11 11 -25 11 -20 0 -32 -11 -53 -45 -15 -24 -30 -45 -34 -45 -4 0
-21 20 -38 45 -36 52 -70 61 -70 20 0 -26 0 -26 -37 11 -21 20 -96 81 -166
136 -300 235 -436 400 -490 593 -24 88 -34 308 -18 386 22 99 78 196 166 284
85 85 148 125 236 149 65 18 108 13 212 -25z m1289 -284 c110 -23 264 -73 278
-90 16 -19 6 -28 -90 -82 -180 -101 -311 -202 -519 -397 -74 -69 -138 -126
-142 -126 -4 0 -26 33 -48 74 -34 61 -41 83 -41 129 0 53 3 60 59 134 88 117
259 302 315 340 55 38 80 40 188 18z m550 -372 c-6 -88 -20 -131 -47 -149 -27
-17 -229 -87 -282 -97 -18 -4 -33 -3 -33 2 0 17 158 159 255 228 55 40 103 73
106 73 3 0 4 -26 1 -57z m-458 -177 c29 -100 47 -126 86 -126 15 0 85 18 154
41 164 52 170 51 174 -24 3 -66 -27 -300 -63 -484 -24 -124 -41 -172 -55 -157
-10 11 -52 142 -84 264 l-26 94 47 61 c143 184 173 224 173 234 0 39 -69 -24
-190 -173 l-97 -118 54 -167 c29 -91 56 -183 60 -204 l6 -39 -34 17 c-19 10
-73 44 -120 75 -47 32 -99 65 -116 73 -30 16 -30 16 -70 -26 -22 -23 -88 -99
-147 -169 -91 -109 -126 -143 -126 -124 0 2 20 71 45 152 54 175 78 280 70
305 -4 10 -40 50 -82 89 -42 38 -74 72 -72 75 3 2 57 29 121 59 69 32 123 64
132 78 8 13 33 79 56 148 42 127 57 157 71 143 4 -4 19 -48 33 -97z m826 -111
c11 -18 24 -55 30 -83 5 -28 18 -385 30 -794 11 -409 25 -876 30 -1038 12
-372 13 -700 1 -700 -18 0 -21 36 -58 730 -14 267 -27 602 -28 745 -1 143 -7
307 -13 365 -23 213 -49 688 -43 804 1 24 3 27 16 16 8 -7 24 -27 35 -45z
m862 -148 c10 -38 10 -53 -1 -80 -7 -17 -26 -78 -42 -134 -31 -109 -57 -173
-71 -173 -12 0 -37 62 -49 123 -9 44 -6 74 20 202 16 83 33 173 37 200 3 28 9
54 12 60 7 12 77 -135 94 -198z m-457 -157 c61 -6 122 -13 138 -16 70 -14 112
-88 180 -314 50 -164 50 -172 7 -186 -19 -7 -97 -22 -172 -35 l-138 -24 -21
21 c-11 11 -38 73 -59 137 -21 63 -63 179 -94 256 -31 76 -56 146 -56 155 0
19 52 21 215 6z m543 -124 c4 -100 7 -116 21 -116 10 0 26 -6 36 -14 19 -14
19 -15 -2 -83 -33 -103 -44 -174 -50 -328 -3 -77 -9 -149 -13 -160 -8 -21 -29
42 -105 305 -52 181 -53 195 -17 282 16 40 37 98 47 128 23 73 54 125 68 111
5 -5 12 -62 15 -125z m-4347 74 c28 -16 24 -26 -21 -51 -30 -17 -40 -29 -38
-44 6 -38 87 -32 281 21 179 48 265 62 314 49 l28 -8 -40 -18 c-22 -10 -48
-19 -57 -19 -37 0 -194 -57 -392 -142 -248 -106 -352 -138 -447 -138 l-68 0
-3 42 c-2 32 -8 44 -21 46 -33 7 -67 -8 -79 -33 -6 -14 -53 -57 -105 -96 -52
-38 -106 -87 -121 -108 -15 -22 -52 -53 -85 -71 -41 -22 -62 -41 -69 -60 -6
-18 -21 -32 -40 -39 -42 -15 -251 -14 -265 0 -7 7 -19 9 -27 6 -21 -8 -23
-144 -2 -172 13 -18 18 -19 63 -7 65 18 233 98 324 157 41 26 135 83 209 127
l135 80 135 -5 c84 -3 148 -10 169 -19 l35 -14 -40 -36 c-21 -20 -177 -148
-346 -284 -274 -222 -327 -261 -490 -355 -191 -112 -305 -171 -398 -207 -140
-55 -298 -67 -412 -32 -71 22 -333 149 -421 206 l-59 37 44 24 c24 14 151 79
283 145 334 168 671 345 858 450 87 50 161 87 164 84 3 -3 -3 -31 -13 -63 -18
-55 -21 -59 -64 -72 -74 -23 -77 -25 -33 -29 63 -5 121 15 165 57 38 35 40 38
23 55 -23 23 -15 29 50 34 48 4 58 8 70 31 19 36 66 79 163 146 79 54 98 80
68 91 -7 3 -74 -24 -147 -60 -136 -66 -173 -79 -179 -61 -6 15 123 99 184 120
28 10 107 43 176 73 344 149 485 191 541 162z m3308 -135 c1 -84 -20 -173 -69
-295 -49 -122 -49 -106 1 -469 36 -265 70 -544 66 -548 -7 -6 -27 98 -62 318
-54 338 -58 354 -75 354 -31 0 -65 -150 -99 -450 -19 -161 -31 -310 -66 -858
-23 -345 -37 -344 -30 3 5 283 26 668 45 830 40 333 176 982 247 1180 l27 75
8 -40 c4 -22 7 -67 7 -100z m-2464 25 c6 -10 -41 -60 -56 -60 -16 0 -9 -20 21
-62 17 -22 30 -46 30 -51 0 -23 -34 -47 -66 -47 -36 0 -64 29 -64 65 1 33 35
98 70 133 35 33 54 40 65 22z m2798 -118 c14 -42 37 -130 51 -195 l27 -117
-36 -98 c-20 -53 -39 -104 -42 -112 -9 -22 -39 113 -52 230 -12 111 -15 358
-4 386 6 16 7 16 18 0 7 -9 24 -51 38 -94z m-998 -58 c50 -34 111 -80 135
-102 l45 -40 -25 -27 c-39 -43 -150 -111 -216 -133 -78 -27 -130 -36 -137 -25
-3 5 3 42 14 83 24 92 24 114 -1 169 -11 24 -20 45 -20 48 0 14 94 102 104 96
6 -3 52 -35 101 -69z m2447 -256 c65 -121 118 -234 173 -373 16 -38 48 -103
72 -143 l45 -74 -62 -136 c-68 -149 -90 -206 -90 -231 1 -31 55 46 132 191 90
167 140 282 136 309 -3 17 -8 15 -47 -16 -24 -19 -47 -35 -51 -35 -4 0 -10 28
-12 63 -3 38 -18 93 -38 140 -18 43 -31 80 -29 82 2 2 30 -13 61 -34 32 -21
76 -44 98 -51 23 -7 52 -24 67 -37 23 -22 25 -28 18 -81 -21 -169 -98 -370
-189 -490 -73 -96 -200 -184 -380 -264 -72 -32 -206 -52 -206 -31 0 6 31 46
68 89 38 43 74 89 80 101 21 39 13 105 -39 313 -66 264 -67 310 -15 470 57
172 127 360 135 360 4 0 37 -55 73 -122z m-457 13 c39 -10 91 -27 116 -38 57
-26 129 -89 129 -114 0 -27 -6 -24 -61 25 -49 44 -86 60 -229 100 -30 8 -64
22 -75 30 -19 15 -18 15 15 16 19 0 67 -9 105 -19z m-427 -48 c12 -31 19 -60
16 -65 -16 -25 -309 -73 -351 -57 -38 14 -27 38 30 64 29 12 72 29 95 36 106
31 -3 34 -117 2 -32 -8 -66 -26 -84 -44 -26 -27 -29 -34 -22 -74 5 -37 4 -44
-9 -39 -19 7 -29 -31 -56 -221 -26 -189 -49 -307 -62 -320 -23 -24 58 571 89
647 17 42 54 66 133 88 73 20 191 38 256 39 l61 1 21 -57z m-1437 -183 c53
-15 79 -49 88 -114 5 -36 16 -65 29 -79 25 -27 34 -119 9 -99 -15 13 -31 4
-40 -21 -9 -23 18 -34 39 -16 15 12 16 10 9 -21 -14 -65 -47 -142 -74 -171
-28 -30 -48 -33 -248 -30 -81 1 -81 1 -92 31 -11 32 -37 40 -59 18 -18 -18
-30 0 -42 61 -23 121 -2 236 58 323 47 68 54 72 77 37 32 -47 55 -34 55 32 0
24 6 33 33 44 38 17 108 19 158 5z m1480 -6 c8 -9 30 -48 49 -88 43 -88 61
-94 92 -32 l22 46 21 -59 c28 -76 77 -142 170 -229 l75 -70 -82 -6 c-46 -3
-200 -7 -343 -8 l-260 -3 -16 35 c-22 46 -66 223 -75 298 -8 71 -23 61 170
102 158 34 160 34 177 14z m-3391 -73 c35 -85 284 -279 492 -383 146 -72 228
-99 328 -105 75 -5 91 -3 129 16 63 33 61 19 -5 -31 -114 -86 -141 -116 -172
-191 -29 -68 -73 -204 -108 -330 -8 -32 -26 -70 -39 -85 -23 -27 -25 -27 -168
-30 -182 -5 -228 6 -407 95 -121 61 -144 76 -221 153 -48 47 -108 118 -134
158 -45 71 -135 269 -135 299 0 8 53 72 118 142 64 70 157 171 205 224 49 53
92 97 97 97 4 0 13 -13 20 -29z m-1098 -128 c-115 -123 -172 -193 -172 -210 0
-6 -20 -23 -43 -37 -53 -30 -150 -133 -178 -187 -14 -28 -31 -44 -58 -55 -31
-12 -42 -24 -56 -59 -9 -26 -25 -47 -36 -50 -29 -10 -67 2 -78 24 -9 16 5 36
94 131 101 109 142 170 130 190 -11 17 -33 11 -123 -34 -48 -24 -105 -51 -127
-60 l-40 -17 30 25 c17 14 122 80 235 147 113 67 275 164 359 215 85 51 157
91 159 89 3 -2 -41 -53 -96 -112z m4103 -25 c3 -13 17 -74 31 -137 l25 -114
-26 -38 c-14 -21 -48 -57 -77 -80 l-52 -41 -9 28 c-18 63 20 279 64 366 22 43
36 48 44 16z m-1020 -571 c-59 -212 -295 -927 -306 -927 -6 0 -12 27 -25 112
-4 26 3 65 26 135 63 190 222 610 301 798 31 74 34 77 37 47 2 -18 -13 -92
-33 -165z m2765 20 c0 -36 44 -135 91 -205 18 -26 75 -101 127 -167 52 -65
101 -134 110 -151 14 -30 13 -35 -8 -76 -12 -23 -40 -62 -61 -85 -21 -24 -39
-52 -39 -63 0 -25 -21 -34 -57 -25 -25 6 -26 8 -10 17 48 26 145 213 123 235
-10 10 -133 -116 -151 -154 -10 -20 -13 -42 -9 -56 6 -20 5 -21 -11 -7 -10 8
-60 65 -111 125 -50 61 -107 128 -126 149 l-35 40 54 185 c59 201 90 284 104
275 5 -3 9 -20 9 -37z m-5951 -307 c-58 -332 -93 -600 -80 -613 21 -21 102 79
331 403 217 308 301 420 316 420 17 0 17 -2 -1 -46 -36 -86 -519 -734 -595
-798 -27 -22 -41 -26 -97 -26 -60 0 -67 2 -94 31 -55 59 -228 355 -229 391 0
9 11 29 24 44 l23 28 31 -43 c40 -56 133 -238 162 -318 22 -61 32 -73 45 -53
8 13 39 192 70 414 29 203 49 288 74 326 9 14 23 38 29 54 31 71 28 -4 -9
-214z m-114 143 c-4 -43 -15 -134 -25 -202 -21 -143 -37 -174 -92 -179 -29 -3
-40 2 -61 28 -31 36 -117 205 -117 228 0 28 102 116 185 159 116 61 118 60
110 -34z m381 42 c50 -25 123 -90 112 -100 -3 -3 -38 10 -79 30 -85 41 -115
45 -99 15 9 -16 82 -74 135 -105 16 -10 3 -32 -114 -195 -142 -198 -161 -222
-161 -202 0 24 41 310 61 422 29 168 46 184 145 135z m-1456 -48 c64 -26 156
-87 220 -145 l45 -41 -61 -1 c-79 0 -218 24 -290 51 l-56 21 5 42 c4 23 11 54
16 69 13 34 45 35 121 4z m4365 -233 c-64 -246 -171 -616 -192 -661 -14 -32
-17 -35 -20 -17 -6 30 15 114 102 410 93 319 148 484 153 462 2 -9 -18 -97
-43 -194z m-2485 -24 c51 -26 245 -163 311 -221 57 -49 84 -93 77 -124 -2 -13
-24 2 -88 59 -47 43 -141 118 -209 169 -68 51 -138 104 -155 120 l-31 27 30
-6 c17 -4 46 -15 65 -24z m1978 -49 c6 -39 -5 -64 -62 -139 -31 -40 -60 -90
-66 -111 -6 -21 -17 -44 -25 -51 -24 -20 -505 -28 -505 -9 0 8 -9 73 -20 144
-22 149 -23 148 58 160 109 17 356 33 482 31 134 -1 135 -1 138 -25z m-2050
-24 c132 -86 379 -299 407 -351 16 -30 16 -34 1 -64 -9 -17 -16 -46 -16 -63 0
-18 -9 -52 -21 -76 -21 -44 -121 -143 -143 -143 -13 0 -477 321 -539 372 l-28
23 54 82 c63 96 196 263 209 263 5 0 40 -19 76 -43z m979 -110 c-9 -34 -32
-120 -51 -192 -25 -90 -52 -164 -91 -240 -66 -129 -78 -179 -46 -188 14 -3 21
-13 21 -30 0 -35 -43 -263 -90 -482 -21 -99 -46 -245 -54 -324 -18 -162 -31
-193 -109 -269 l-44 -43 -37 41 c-100 111 -272 421 -262 472 3 16 26 76 51
134 52 122 55 145 21 168 -14 8 -27 24 -30 34 -10 29 20 165 48 220 32 63 58
82 112 82 38 0 45 4 65 38 12 20 38 54 56 75 18 20 33 44 33 51 0 34 21 23 44
-21 26 -53 61 -90 70 -75 10 17 -14 171 -40 252 -27 85 -51 114 -91 104 -27
-7 -28 -4 -9 41 13 31 19 35 54 35 l39 0 -9 63 c-4 34 -9 73 -11 87 l-2 25
137 8 c76 4 155 11 175 16 28 6 42 4 53 -6 13 -12 13 -21 -3 -76z m4865 -128
c120 -107 166 -135 308 -190 58 -22 109 -44 113 -48 4 -4 -20 -43 -53 -86 -33
-43 -60 -86 -60 -96 0 -27 35 -24 58 5 l19 25 22 -22 c32 -32 51 -14 85 81
l28 81 35 -14 c41 -17 140 -95 202 -159 l44 -45 -29 -8 c-16 -4 -153 -8 -304
-8 l-275 0 -54 33 c-55 34 -60 34 -117 11 -27 -11 -39 -10 -78 5 -92 35 -161
134 -186 265 -7 39 -5 47 15 67 12 12 46 34 74 48 28 15 51 30 51 35 0 5 -6
24 -14 42 -10 23 -11 39 -5 51 5 10 12 18 14 18 2 0 51 -41 107 -91z m-4170
-133 c31 -9 108 -40 172 -70 l116 -55 -1 -223 c-1 -381 -15 -670 -39 -783 -25
-117 -66 -244 -84 -263 -7 -8 -47 -17 -87 -22 -149 -17 -795 -54 -814 -46 -20
7 -20 8 2 25 23 19 112 39 323 71 344 53 412 76 466 157 101 153 230 503 185
503 -15 0 -29 -24 -81 -141 -88 -199 -153 -269 -253 -269 -25 0 -48 3 -50 8
-3 4 17 36 44 72 105 139 122 211 117 495 -4 208 -9 238 -47 250 -11 3 -33 -1
-49 -9 -28 -14 -30 -14 -58 15 -16 17 -49 42 -73 57 -37 22 -48 24 -72 15 -20
-8 -41 -8 -67 -1 -52 14 -152 50 -152 55 0 2 20 1 44 -2 38 -6 46 -4 60 16 10
15 16 44 16 80 0 60 8 74 50 82 45 10 274 -2 332 -17z m416 -68 c97 -35 113
-44 120 -67 4 -14 7 -161 7 -326 0 -264 -3 -317 -23 -443 -41 -253 -97 -438
-140 -461 -9 -5 -44 -10 -77 -13 l-61 -4 22 83 c48 179 77 420 93 768 11 235
5 350 -23 403 -9 17 -50 57 -91 88 -41 31 -75 58 -75 60 0 2 30 -8 68 -22 37
-14 118 -44 180 -66z m-3269 32 l50 -40 42 15 c53 19 69 19 69 0 0 -23 -60
-55 -104 -55 -38 0 -38 0 -32 -32 3 -18 18 -49 32 -70 17 -24 24 -44 20 -56
-8 -23 -150 -162 -166 -162 -15 0 -13 13 15 86 l25 67 -23 31 c-18 24 -21 38
-16 61 11 49 10 112 -2 139 -9 20 -9 29 1 41 19 23 33 19 89 -25z m4436 -150
c23 -26 49 -25 86 1 l29 20 -5 -28 c-2 -15 -7 -71 -10 -123 -14 -255 -72 -446
-128 -425 -28 11 -20 44 28 107 25 33 49 72 53 87 11 39 9 261 -3 262 -5 0
-23 -42 -40 -95 -34 -105 -40 -115 -57 -98 -15 15 -15 245 1 285 13 32 22 34
46 7z m-1880 -109 c117 -43 197 -79 207 -92 31 -37 40 -98 36 -234 -4 -107 -9
-143 -31 -203 -34 -98 -80 -173 -147 -242 -62 -63 -98 -83 -202 -109 -77 -20
-366 -56 -375 -47 -14 13 77 232 160 385 l52 96 6 -58 c4 -31 17 -78 31 -105
24 -47 70 -84 85 -68 4 4 10 89 13 189 5 161 8 188 28 231 62 135 -27 121
-121 -19 -23 -33 -71 -98 -107 -143 -58 -72 -65 -78 -68 -56 -6 43 26 172 89
370 l62 191 46 -8 c26 -4 132 -39 236 -78z m-1554 30 c61 -39 89 -72 100 -118
15 -67 9 -163 -12 -163 -4 0 -35 23 -68 50 -96 80 -143 181 -111 241 15 26 38
24 91 -10z m-488 -80 c46 -22 67 -45 53 -58 -11 -11 -141 -32 -203 -33 -55 0
-64 3 -78 24 -20 30 -8 58 33 81 39 22 135 15 195 -14z m3307 -369 c0 -14 -24
-32 -42 -32 -26 0 -32 -24 -13 -54 l17 -25 -39 -7 c-54 -10 -57 -13 -32 -40
18 -19 20 -26 9 -39 -7 -8 -28 -15 -46 -15 -39 0 -43 -11 -11 -34 l22 -15 -24
-21 c-41 -35 -131 -20 -131 23 0 6 24 34 53 62 29 27 70 73 91 100 52 68 96
105 123 105 13 0 23 -4 23 -8z m1685 -1004 c31 -70 39 -151 25 -245 -15 -98
-48 -205 -61 -198 -13 8 -38 70 -49 122 -7 30 -6 58 5 100 8 32 19 102 25 157
14 137 19 142 55 64z m-615 -210 c0 -30 -77 -182 -106 -209 l-24 -22 0 46 c0
25 9 71 21 101 29 80 109 141 109 84z m475 -439 c24 -67 19 -113 -24 -204 -21
-45 -43 -85 -49 -89 -20 -12 -26 45 -9 93 8 25 18 91 20 146 3 55 8 108 12
118 7 17 8 17 22 -2 7 -11 20 -39 28 -62z"/>
<path d="M5617 10363 c-11 -10 -8 -376 3 -393 19 -30 25 6 28 167 4 200 -3
255 -31 226z"/>
<path d="M6625 10551 c-2 -4 3 -30 11 -57 8 -27 13 -67 10 -89 -8 -63 4 -96
53 -145 76 -76 188 -91 284 -38 69 38 63 55 -50 142 -180 140 -294 209 -308
187z"/>
<path d="M8216 8324 c-15 -38 -5 -74 27 -107 19 -18 53 -67 77 -108 69 -117
109 -149 144 -113 37 36 5 159 -63 241 -65 79 -169 128 -185 87z"/>
<path d="M7940 8244 c-14 -7 -46 -14 -72 -14 -40 0 -48 -3 -48 -19 0 -28 50
-42 168 -48 l102 -6 0 26 c0 58 -89 95 -150 61z"/>
<path d="M8110 8048 c-1 -28 -9 -57 -25 -83 -26 -41 -33 -85 -15 -85 6 0 23 9
39 20 23 18 32 19 55 10 27 -10 28 -11 12 -29 -42 -46 4 -108 66 -90 51 14 68
37 68 90 0 56 -23 79 -80 79 -48 0 -60 10 -67 56 -7 50 -20 74 -38 74 -11 0
-15 -12 -15 -42z"/>
<path d="M5757 6153 c-22 -25 -73 -130 -86 -178 -15 -57 -14 -95 3 -95 44 0
149 224 130 275 -8 20 -27 19 -47 -2z"/>
<path d="M5833 5818 c-28 -30 -85 -132 -108 -192 -16 -42 -16 -49 -3 -62 8 -8
22 -12 32 -8 20 8 64 92 95 182 33 96 27 126 -16 80z"/>
<path d="M3240 5530 c-25 -4 -122 -30 -215 -58 -302 -90 -414 -115 -605 -132
-63 -6 -130 -15 -148 -21 -37 -12 -56 -41 -47 -69 8 -26 61 -26 222 0 280 46
470 95 635 166 44 19 95 34 113 34 18 0 44 9 59 21 15 12 45 23 66 26 41 6 54
26 24 37 -19 7 -44 6 -104 -4z"/>
<path d="M9161 5323 c2 -81 -2 -97 -40 -198 -23 -60 -55 -140 -71 -176 -25
-56 -30 -78 -30 -148 0 -80 1 -82 22 -79 28 4 120 129 178 241 35 70 40 86 40
148 0 131 -46 299 -81 299 -18 0 -19 -7 -18 -87z"/>
<path d="M6639 5299 c-33 -12 -48 -45 -56 -119 -7 -71 9 -123 46 -149 l28 -20
40 42 c78 81 78 111 -3 123 -51 7 -55 21 -24 72 35 57 25 72 -31 51z"/>
<path d="M4774 5246 c-3 -14 -1 -63 5 -108 19 -140 57 -265 121 -393 85 -170
179 -282 257 -304 34 -10 73 3 73 23 0 8 -51 91 -113 183 -124 184 -230 387
-275 528 -31 94 -55 120 -68 71z"/>
<path d="M4995 4990 c-15 -24 166 -181 289 -250 l58 -33 62 20 c87 29 85 45
-11 89 -43 20 -125 58 -183 86 -178 85 -209 98 -215 88z"/>
<path d="M4627 4963 c-35 -63 8 -248 83 -354 24 -33 50 -38 50 -9 0 27 -65
276 -85 328 -16 38 -37 54 -48 35z"/>
<path d="M6058 4220 c-103 -19 -224 -53 -241 -70 -14 -12 92 -33 168 -33 39 0
88 5 111 12 42 11 154 85 154 102 0 14 -72 10 -192 -11z"/>
<path d="M5011 3367 c-25 -31 -60 -308 -42 -336 13 -20 26 9 46 104 32 157 31
273 -4 232z"/>
</g>
</svg>
