<?xml version="1.0" encoding="utf-8"?>
<!-- Generator: Adobe Illustrator 22.1.0, SVG Export Plug-In . SVG Version: 6.00 Build 0)  -->
<svg version="1.1" id="Capa_1" xmlns="http://www.w3.org/2000/svg" xmlns:xlink="http://www.w3.org/1999/xlink" x="0px" y="0px"
	 viewBox="0 0 425.4 425.4" style="enable-background:new 0 0 425.4 425.4;" xml:space="preserve">
<style type="text/css">
	.st0{fill:#E4FF55;}
	.st1{fill:#0058FF;}
	.st2{fill:#0058FF;stroke:#E4FF55;stroke-width:4;stroke-miterlimit:10;}
</style>
<polygon class="st0" points="203.8,80.3 175.8,80.3 144.6,49.1 83,75.5 83,75.5 7.8,107.5 175.8,159.5 232.6,121.1 "/>
<path class="st1" d="M69.4,389.9l22.4-56.8l-41.6-49.6L67,268.3l5.6,6.4c8,8,20,12,31.2,11.2c36,0,84.8-24,86.4-24.8l14.4-92.8
	l-28.8-8.8l57.6-37.6l-28.8-40.8h-28.8l-30.4-31.2L203,25.1h0.8c98.4-16.8,192,49.6,209.6,148c1.6,9.6,2.4,20,2.4,30.4c0,4,0,8,0,12
	c0,33.6,0.8,80-28,85.6c-196,34.4-270.4,84.8-288.8,100l-4,3.2L69.4,389.9z"/>
<polygon class="st0" points="31,368.3 31,300.3 49.4,283.5 91.8,333.1 69.4,389.9 "/>
<path class="st2" d="M423.8,203.5c0-104.8-84.8-189.6-189.6-189.6c-11.2,0-22.4,0.8-32.8,3.2l-1.6,0.8L4.6,100.3
	c-4,1.6-5.6,6.4-4,10.4c0.8,2.4,2.4,4,4.8,4.8l190.4,58.4L183,255.5c-12,5.6-50.4,22.4-79.2,22.4c-22.4,0-27.2-10.4-28-13.6
	c-1.6-4-6.4-6.4-10.4-4.8c-0.8,0-1.6,0.8-2.4,1.6l-36,33.6c-1.6,1.6-2.4,3.2-2.4,5.6l-0.8,67.2c0,3.2,1.6,5.6,4,7.2l64,36
	c0.8,0.8,2.4,0.8,4,0.8c2.4,0,4-0.8,5.6-2.4c0.8-0.8,66.4-62.4,288.8-101.6c36-6.4,35.2-56.8,35.2-93.6
	C423.8,210.7,423.8,207.5,423.8,203.5z M31,105.9l51.2-21.6l38.4,20.8c4,2.4,8.8,0.8,11.2-3.2s0.8-8.8-3.2-11.2l-27.2-15.2L143,57.9
	l26.4,27.2c1.6,1.6,3.2,2.4,5.6,2.4h24.8l21.6,31.2l-47.2,31.2L31,105.9z M39,363.5l0.8-59.2l9.6-8.8L83,334.7l-17.6,44L39,363.5z
	 M386.2,292.3c-198.4,35.2-274.4,87.2-292.8,102.4l-14.4-8l20-50.4c0.8-2.4,0.8-5.6-1.6-8l-36.8-43.2l4.8-4.8
	c9.6,10.4,23.2,15.2,37.6,14.4c38.4,0,88-24.8,90.4-25.6c2.4-0.8,4-3.2,4-5.6l14.4-94.4c0.8-4-1.6-8-5.6-8.8l-12.8-3.2l43.2-28.8
	c4-2.4,4.8-7.2,2.4-11.2l0,0l-28.8-40.8c-1.6-2.4-4-3.2-6.4-3.2h-25.6l-20-20.8l45.6-19.2c94.4-16,184,47.2,200.8,141.6
	c1.6,9.6,2.4,19.2,2.4,28.8c0,4,0,8,0,12C408.6,246.7,408.6,289.1,386.2,292.3z"/>
</svg>
