<svg id="Capa_1" data-name="Capa 1" xmlns="http://www.w3.org/2000/svg" viewBox="0 0 425.41 397.6"><defs><style>.cls-1{fill:#c90005;}.cls-2{fill:#b4ffd1;}</style></defs><title>helmet-white</title><polygon class="cls-1" points="203.81 66.4 175.81 66.4 144.61 35.2 83.01 61.6 83.01 61.6 7.81 93.6 175.81 145.6 232.61 107.2 203.81 66.4"/><path class="cls-2" d="M69.4,389.9l22.4-56.8L50.2,283.5,67,268.3l5.6,6.4c8,8,20,12,31.2,11.2,36,0,84.8-24,86.4-24.8l14.4-92.8-28.8-8.8,57.6-37.6L204.6,81.1H175.8L145.4,49.9,203,25.1h.8c98.4-16.8,192,49.6,209.6,148a187.22,187.22,0,0,1,2.4,30.4v12c0,33.6.8,80-28,85.6-196,34.4-270.4,84.8-288.8,100l-4,3.2Z" transform="translate(0.01 -13.9)"/><polygon class="cls-1" points="31.01 354.4 31.01 286.4 49.41 269.6 91.81 319.2 69.41 376 31.01 354.4"/><path d="M423.8,203.5A189.49,189.49,0,0,0,234.2,13.9c-11.2,0-22.4.8-32.8,3.2l-1.6.8L4.6,100.3c-4,1.6-5.6,6.4-4,10.4a7.21,7.21,0,0,0,4.8,4.8l190.4,58.4L183,255.5c-12,5.6-50.4,22.4-79.2,22.4-22.4,0-27.2-10.4-28-13.6-1.6-4-6.4-6.4-10.4-4.8-.8,0-1.6.8-2.4,1.6L27,294.7a7.26,7.26,0,0,0-2.4,5.6l-.8,67.2a8.4,8.4,0,0,0,4,7.2l64,36c.8.8,2.4.8,4,.8a7.26,7.26,0,0,0,5.6-2.4c.8-.8,66.4-62.4,288.8-101.6,36-6.4,35.2-56.8,35.2-93.6C423.8,210.7,423.8,207.5,423.8,203.5ZM31,105.9,82.2,84.3l38.4,20.8c4,2.4,8.8.8,11.2-3.2s.8-8.8-3.2-11.2L101.4,75.5,143,57.9l26.4,27.2a7.26,7.26,0,0,0,5.6,2.4h24.8l21.6,31.2-47.2,31.2Zm8,257.6.8-59.2,9.6-8.8L83,334.7l-17.6,44Zm347.2-71.2C187.8,327.5,111.8,379.5,93.4,394.7l-14.4-8,20-50.4a7.64,7.64,0,0,0-1.6-8L60.6,285.1l4.8-4.8c9.6,10.4,23.2,15.2,37.6,14.4,38.4,0,88-24.8,90.4-25.6a6,6,0,0,0,4-5.6l14.4-94.4a7.37,7.37,0,0,0-5.6-8.8l-12.8-3.2,43.2-28.8c4-2.4,4.8-7.2,2.4-11.2h0L210.2,76.3a7.28,7.28,0,0,0-6.4-3.2H178.2l-20-20.8,45.6-19.2c94.4-16,184,47.2,200.8,141.6a174.9,174.9,0,0,1,2.4,28.8v12C408.6,246.7,408.6,289.1,386.2,292.3Z" transform="translate(0.01 -13.9)"/></svg>